<svg width="22" height="22" viewBox="0 0 22 22" fill="none" xmlns="http://www.w3.org/2000/svg">
<path d="M20.8883 15.9738V18.9846C20.8894 19.2642 20.8351 19.5408 20.7288 19.7969C20.6225 20.053 20.4667 20.2829 20.2712 20.4719C20.0757 20.6608 19.8449 20.8047 19.5936 20.8942C19.3423 20.9838 19.076 21.017 18.8118 20.9919C15.8807 20.6563 13.0652 19.601 10.5915 17.9108C8.29003 16.3699 6.33878 14.3141 4.87633 11.8892C3.26654 9.27099 2.26473 6.29008 1.95207 3.18795C1.92826 2.91042 1.95957 2.63071 2.04399 2.36663C2.12841 2.10254 2.26409 1.85987 2.4424 1.65407C2.62071 1.44826 2.83773 1.28383 3.07966 1.17123C3.32159 1.05864 3.58312 1.00036 3.8476 1.0001H6.70519C7.16745 0.995304 7.61561 1.16778 7.96611 1.48537C8.31661 1.80297 8.54555 2.24401 8.61024 2.72629C8.73086 3.68982 8.95454 4.63587 9.27701 5.54642C9.40517 5.90563 9.43291 6.29602 9.35694 6.67133C9.28097 7.04665 9.10448 7.39115 8.84838 7.66402L7.63866 8.93859C8.99464 11.4512 10.9691 13.5315 13.3538 14.9602L14.5635 13.6856C14.8225 13.4158 15.1495 13.2298 15.5057 13.1498C15.8619 13.0698 16.2325 13.099 16.5734 13.234C17.4376 13.5738 18.3355 13.8095 19.25 13.9365C19.7127 14.0053 20.1353 14.2509 20.4373 14.6265C20.7394 15.0021 20.8999 15.4817 20.8883 15.9738Z" stroke="#B4B4B4" stroke-width="2" stroke-linecap="round" stroke-linejoin="round"/>
</svg>
