<svg width="18" height="22" viewBox="0 0 18 22" fill="none" xmlns="http://www.w3.org/2000/svg">
<rect x="0.5" y="8.5" width="12.0598" height="13" rx="1.5" fill="white" stroke="#E1E1E1"/>
<path d="M17.2393 0.15625C15.3155 1.60156 13.3693 3.53516 11.3468 6.00586C9.1437 8.70117 6.82703 12.1631 4.90169 15.638C4.79415 15.8317 4.72992 15.931 4.71797 15.9261C4.70603 15.9212 3.64851 15.1546 2.36546 14.2204C1.0824 13.2861 0.0233932 12.5163 0.0114439 12.5081C-0.00498637 12.4984 -0.0034927 12.5049 0.0144312 12.5342C0.16081 12.762 5.54696 20.7992 5.55443 20.8008C5.55891 20.8008 5.60521 20.6934 5.65599 20.5599C7.48573 15.8105 9.27364 12.041 11.3887 8.47168C13.1034 5.57943 15.0944 2.77995 17.2125 0.288086C17.3484 0.130209 17.4559 0 17.4529 0C17.45 0 17.3529 0.0699883 17.2393 0.15625Z" fill="#FB9E14"/>
</svg>
