<svg width="77" height="77" viewBox="0 0 77 77" fill="none" xmlns="http://www.w3.org/2000/svg">
<circle cx="38.5" cy="38.5" r="38.5" fill="url(#paint0_linear_326_97)"/>
<g clip-path="url(#clip0_326_97)">
<path fill-rule="evenodd" clip-rule="evenodd" d="M28.1547 13.1643C28.1567 13.6825 28.3059 21.1712 36.0602 21.6383C36.0602 23.798 36.0628 25.3638 36.0628 27.4246C35.4756 27.4591 30.9579 27.1267 28.1462 24.5849L28.1377 35.8496C28.2444 43.6681 22.5673 48.426 15.147 46.7825C2.35135 42.9031 6.60325 23.6686 19.4512 25.7274C19.4512 31.937 19.4545 25.7254 19.4545 31.937C14.1467 31.1455 12.3713 35.6207 13.782 38.8247C15.0651 41.742 20.3501 42.3743 22.1935 38.2587C22.4024 37.4532 22.5065 36.535 22.5065 35.5039V13.1357L28.1547 13.1643Z" fill="white"/>
</g>
<g clip-path="url(#clip1_326_97)">
<path fill-rule="evenodd" clip-rule="evenodd" d="M54.8717 43.7444L46.6104 48.2752C46.2514 48.4694 45.9282 48.2093 45.9282 47.8016V38.5005C45.9282 38.0871 46.2614 37.8277 46.6212 38.0319L54.9391 42.8014C55.3067 43.0113 55.2443 43.5423 54.8717 43.7444ZM67.9412 38.4009C67.9412 33.9897 64.3655 30.4141 59.955 30.4141H39.2398C34.8293 30.4141 31.2529 33.9897 31.2529 38.4009V48.109C31.2529 52.5202 34.8293 56.0958 39.2398 56.0958H59.955C64.3655 56.0958 67.9412 52.5202 67.9412 48.109V38.4009Z" fill="white"/>
</g>
<circle cx="45.7471" cy="13.1349" r="4.52941" fill="white"/>
<circle cx="28.7618" cy="67.2627" r="2.49118" fill="white"/>
<defs>
<linearGradient id="paint0_linear_326_97" x1="38" y1="21.5" x2="38" y2="137" gradientUnits="userSpaceOnUse">
<stop stop-color="#28B075"/>
<stop offset="1" stop-color="#37D892"/>
</linearGradient>
<clipPath id="clip0_326_97">
<rect width="33.5177" height="33.9706" fill="white" transform="translate(4.98235 13.1357)"/>
</clipPath>
<clipPath id="clip1_326_97">
<rect width="36.6882" height="36.6882" fill="white" transform="translate(31.2529 24.9111)"/>
</clipPath>
</defs>
</svg>
