<svg width="79" height="77" viewBox="0 0 79 77" fill="none" xmlns="http://www.w3.org/2000/svg">
<circle cx="38.5" cy="38.5" r="38.5" fill="url(#paint0_linear_326_98)"/>
<path fill-rule="evenodd" clip-rule="evenodd" d="M49.4545 36.9091C42.5259 36.9091 36.9091 42.5259 36.9091 49.4545C36.9091 56.3832 42.5259 62 49.4545 62C56.3832 62 62 56.3832 62 49.4545C62 42.5259 56.3832 36.9091 49.4545 36.9091ZM49.4545 42.1364C46.5676 42.1364 44.2273 44.4767 44.2273 47.3636C44.2273 48.1435 44.3981 48.8837 44.7044 49.5484C42.2162 50.8203 40.3058 53.0597 39.4671 55.7689L43.462 57.0054C44.2542 54.4462 46.641 52.5909 49.4556 52.5909C52.27 52.5909 54.6567 54.4462 55.449 57.0054L59.4439 55.7689C58.605 53.0591 56.6939 50.8193 54.2051 49.5478C54.5112 48.8831 54.6818 48.1433 54.6818 47.3636C54.6818 44.4767 52.3415 42.1364 49.4545 42.1364ZM28.5455 16C21.6168 16 16 21.6168 16 28.5455C16 35.4741 21.6168 41.0909 28.5455 41.0909C35.4741 41.0909 41.0909 35.4741 41.0909 28.5455C41.0909 21.6168 35.4741 16 28.5455 16ZM28.5455 21.2273C25.6585 21.2273 23.3182 23.5676 23.3182 26.4545C23.3182 27.2345 23.489 27.9746 23.7953 28.6394C21.3071 29.9112 19.3967 32.1506 18.5581 34.8598L22.5529 36.0964C23.3452 33.5371 25.7318 31.6818 28.5464 31.6818C31.3609 31.6818 33.7476 33.5371 34.5399 36.0964L38.5348 34.8598C37.6959 32.1501 35.7848 29.9103 33.296 28.6386C33.602 27.974 33.7727 27.2342 33.7727 26.4545C33.7727 23.5676 31.4324 21.2273 28.5455 21.2273Z" fill="white"/>
<path fill-rule="evenodd" clip-rule="evenodd" d="M49.4545 41.0909C44.8355 41.0909 41.0909 44.8355 41.0909 49.4545C41.0909 54.0736 44.8355 57.8182 49.4545 57.8182C54.0736 57.8182 57.8182 54.0736 57.8182 49.4545C57.8182 44.8355 54.0736 41.0909 49.4545 41.0909ZM36.9091 49.4545C36.9091 42.5259 42.5259 36.9091 49.4545 36.9091C56.3832 36.9091 62 42.5259 62 49.4545C62 56.3832 56.3832 62 49.4545 62C42.5259 62 36.9091 56.3832 36.9091 49.4545ZM28.5455 20.1818C23.9263 20.1818 20.1818 23.9263 20.1818 28.5455C20.1818 33.1646 23.9263 36.9091 28.5455 36.9091C33.1646 36.9091 36.9091 33.1646 36.9091 28.5455C36.9091 23.9263 33.1646 20.1818 28.5455 20.1818ZM16 28.5455C16 21.6168 21.6168 16 28.5455 16C35.4741 16 41.0909 21.6168 41.0909 28.5455C41.0909 35.4741 35.4741 41.0909 28.5455 41.0909C21.6168 41.0909 16 35.4741 16 28.5455ZM26.4545 43.1818C22.9902 43.1818 20.1818 45.9901 20.1818 49.4545C20.1818 52.919 22.9902 55.7273 26.4545 55.7273C29.9189 55.7273 32.7273 52.919 32.7273 49.4545C32.7273 45.9901 29.9189 43.1818 26.4545 43.1818ZM51.5455 22.2727C55.0099 22.2727 57.8182 25.0811 57.8182 28.5455C57.8182 32.0098 55.0099 34.8182 51.5455 34.8182C48.081 34.8182 45.2727 32.0098 45.2727 28.5455C45.2727 25.0811 48.081 22.2727 51.5455 22.2727Z" fill="white"/>
<path fill-rule="evenodd" clip-rule="evenodd" d="M30 47.6667H38.5V52H30V47.6667ZM47 26H38.5V30.3333H47V26ZM36.8153 34.2179L43.1903 40.718L40.1851 43.7821L33.8101 37.2821L36.8153 34.2179Z" fill="white"/>
<defs>
<linearGradient id="paint0_linear_326_98" x1="38" y1="21.5" x2="38" y2="137" gradientUnits="userSpaceOnUse">
<stop stop-color="#28B075"/>
<stop offset="1" stop-color="#37D892"/>
</linearGradient>
</defs>
</svg>
