<svg width="77" height="77" viewBox="0 0 77 77" fill="none" xmlns="http://www.w3.org/2000/svg">
<circle cx="38.5" cy="38.5" r="38.5" fill="url(#paint0_linear_326_114)"/>
<path d="M38.4067 39.5685C38.4067 39.5685 38.4067 39.6142 38.4067 39.5685C38.4067 39.6142 38.4067 39.6142 38.4067 39.5685C38.681 39.8425 39.1381 40.0709 39.6866 39.9795C39.7781 39.9795 60.3487 34.1799 62.04 33.7232C62.1315 33.6776 62.2229 33.6776 62.2686 33.6319C62.8172 33.3122 63 32.7642 63 32.3533C63 31.9879 62.8172 31.4856 62.36 31.2116C62.2686 31.1203 51.709 26.2796 51.709 26.2796C51.709 26.2796 46.8635 15.7307 46.8178 15.6393C46.5435 15.2283 46.0864 15.0457 45.675 15C45.2179 15 44.715 15.1827 44.395 15.7307C44.3493 15.822 44.3036 15.8677 44.3036 15.959C43.8465 17.6487 38.041 38.1986 38.041 38.2899C37.9039 38.8379 38.1324 39.2945 38.4067 39.5685Z" fill="white"/>
<path d="M55.9262 23.3307L56.0615 23.193C56.1066 23.1471 56.1066 23.1471 56.1516 23.1012C56.1967 23.0553 56.1967 23.0553 56.2418 23.0094L56.377 22.8717C56.4221 22.8258 56.4221 22.8258 56.4672 22.7799C56.5123 22.734 56.5123 22.734 56.5574 22.6881L56.6926 22.5504C56.7377 22.5045 56.7377 22.5045 56.7828 22.4586C56.8279 22.4127 56.8279 22.4127 56.873 22.3668L57.0082 22.2291C57.0533 22.1832 57.0533 22.1832 57.0984 22.1373C57.1434 22.0914 57.1434 22.0914 57.1885 22.0455L57.3238 21.9078C57.8648 21.357 57.8648 20.4389 57.3238 19.8881C56.7828 19.3373 55.8811 19.3373 55.3402 19.8881L55.2049 20.0258C55.1598 20.0717 55.1598 20.0717 55.1148 20.1176C55.0697 20.1635 55.0697 20.1635 55.0246 20.2094L54.8893 20.3471C54.8443 20.393 54.8443 20.393 54.7992 20.4389C54.7541 20.4848 54.7541 20.4848 54.709 20.5307L54.5738 20.6685C54.5287 20.7144 54.5287 20.7144 54.4836 20.7603C54.4385 20.8062 54.4385 20.8062 54.3934 20.8521L54.2582 20.9898C54.2131 21.0357 54.2131 21.0357 54.168 21.0816C54.123 21.1275 54.123 21.1275 54.0779 21.1734L53.9426 21.3111C53.4016 21.8619 53.4016 22.7799 53.9426 23.3307C54.4836 23.8816 55.3852 23.8816 55.9262 23.3307ZM60.9754 14.1504L60.8402 14.2881C60.7951 14.334 60.7951 14.334 60.75 14.3799C60.7049 14.4258 60.7049 14.4258 60.6598 14.4717L60.5246 14.6094C60.4795 14.6553 60.4795 14.6553 60.4344 14.7012C60.3893 14.7471 60.3893 14.7471 60.3443 14.793L60.209 14.9307C60.1639 14.9766 60.1639 14.9766 60.1189 15.0226C60.0738 15.0685 60.0738 15.0685 60.0287 15.1144L59.8934 15.2521C59.8484 15.298 59.8484 15.298 59.8033 15.3439C59.7582 15.3898 59.7582 15.3898 59.7131 15.4357L59.5779 15.5734C59.0369 16.1242 59.0369 17.0422 59.5779 17.593C60.1189 18.1439 61.0205 18.1439 61.5615 17.593L61.6967 17.4553C61.7418 17.4094 61.7418 17.4094 61.7869 17.3635C61.832 17.3176 61.832 17.3176 61.877 17.2717L62.0123 17.134C62.0574 17.0881 62.0574 17.0881 62.1025 17.0422C62.1475 16.9963 62.1475 16.9963 62.1926 16.9504L62.3279 16.8127C62.3729 16.7668 62.373 16.7668 62.418 16.7209C62.4631 16.675 62.4631 16.675 62.5082 16.6291L62.6434 16.4914C62.6885 16.4455 62.6885 16.4455 62.7336 16.3996C62.7787 16.3537 62.7787 16.3537 62.8238 16.3078L62.959 16.1701C63.5 15.6193 63.5 14.7012 62.959 14.1504C62.418 13.5996 61.5164 13.5996 60.9754 14.1504ZM62.373 36.1832L61.832 36.3209C59.8033 36.9176 57.9549 37.4225 56.2869 37.9275C56.2869 38.2947 56.332 38.6619 56.332 39.075C56.332 49.0816 48.3525 57.2521 38.4795 57.2521C28.6516 57.2521 20.627 49.1275 20.627 39.075C20.627 29.0225 28.6066 20.898 38.4795 20.898C38.8402 20.898 39.2008 20.898 39.5615 20.9439C40.0574 19.0619 40.6434 16.9963 41.2746 14.7012C41.3197 14.5635 41.3648 14.4258 41.4098 14.334C40.4631 14.1963 39.4713 14.1504 38.4795 14.1504C25 14.1504 14 25.3504 14 39.075C14 52.7996 25 63.9996 38.4795 63.9996C52.0041 63.9996 62.959 52.7996 62.959 39.075C62.959 38.0652 62.9139 37.0553 62.7787 36.0455C62.6885 36.1373 62.5533 36.1832 62.373 36.1832Z" fill="white"/>
<path d="M35.6979 34.8129C36.1014 33.3626 36.729 30.9298 37.8051 27C31.7973 27.3743 27 32.614 27 38.9766C27 45.5731 32.1559 51 38.5224 51C44.6647 51 49.6862 45.9942 50 39.6784C46.2788 40.7544 43.9474 41.4561 42.5575 41.8772C41.6608 43.2339 40.1813 44.1228 38.5224 44.1228C35.8324 44.1228 33.6355 41.8304 33.6355 39.0234C33.5906 37.2456 34.4425 35.7485 35.6979 34.8129Z" fill="white"/>
<defs>
<linearGradient id="paint0_linear_326_114" x1="38" y1="21.5" x2="38" y2="137" gradientUnits="userSpaceOnUse">
<stop stop-color="#28B075"/>
<stop offset="1" stop-color="#37D892"/>
</linearGradient>
</defs>
</svg>
