<svg width="55" height="55" viewBox="0 0 55 55" fill="none" xmlns="http://www.w3.org/2000/svg">
<path d="M27.281 53.562C41.7956 53.562 53.562 41.7956 53.562 27.281C53.562 12.7664 41.7956 1 27.281 1C12.7664 1 1 12.7664 1 27.281C1 41.7956 12.7664 53.562 27.281 53.562Z" fill="#28B075" stroke="white" stroke-dasharray="10 10"/>
<path d="M10.3475 39.7856C10.1173 40.0661 10.158 40.4801 10.4385 40.7103C10.719 40.9405 11.133 40.8998 11.3632 40.6193L10.3475 39.7856ZM35.6002 10.7911C35.5646 10.4299 35.2431 10.166 34.882 10.2015L28.9971 10.7803C28.636 10.8159 28.372 11.1374 28.4076 11.4985C28.4431 11.8597 28.7646 12.1236 29.1258 12.0881L34.3567 11.5736L34.8712 16.8045C34.9068 17.1656 35.2283 17.4296 35.5894 17.3941C35.9506 17.3586 36.2145 17.037 36.179 16.6759L35.6002 10.7911ZM11.3632 40.6193L35.4541 11.2722L34.4384 10.4385L10.3475 39.7856L11.3632 40.6193Z" fill="white"/>
<path d="M28.376 38.4504H19.6157C19.1319 38.4504 18.7397 38.8427 18.7397 39.3265C18.7397 39.8103 19.1319 40.2025 19.6157 40.2025H28.376C28.8599 40.2025 29.2521 39.8103 29.2521 39.3265C29.2521 38.8427 28.8599 38.4504 28.376 38.4504Z" fill="white"/>
<path d="M39.3264 38.4504H30.5661C30.0823 38.4504 29.6901 38.8427 29.6901 39.3265C29.6901 39.8103 30.0823 40.2025 30.5661 40.2025H39.3264C39.8103 40.2025 40.2025 39.8103 40.2025 39.3265C40.2025 38.8427 39.8103 38.4504 39.3264 38.4504Z" fill="white"/>
<path d="M39.3264 30.5661H30.5661C30.0823 30.5661 29.6901 30.9583 29.6901 31.4421C29.6901 31.926 30.0823 32.3182 30.5661 32.3182H39.3264C39.8103 32.3182 40.2025 31.926 40.2025 31.4421C40.2025 30.9583 39.8103 30.5661 39.3264 30.5661Z" fill="white"/>
<path d="M28.376 35.8223H19.6157C19.1319 35.8223 18.7397 36.2145 18.7397 36.6984C18.7397 37.1822 19.1319 37.5744 19.6157 37.5744H28.376C28.8599 37.5744 29.2521 37.1822 29.2521 36.6984C29.2521 36.2145 28.8599 35.8223 28.376 35.8223Z" fill="white"/>
<path d="M39.3264 35.8223H30.5661C30.0823 35.8223 29.6901 36.2145 29.6901 36.6984C29.6901 37.1822 30.0823 37.5744 30.5661 37.5744H39.3264C39.8103 37.5744 40.2025 37.1822 40.2025 36.6984C40.2025 36.2145 39.8103 35.8223 39.3264 35.8223Z" fill="white"/>
<path d="M39.3264 27.938H30.5661C30.0823 27.938 29.6901 28.3302 29.6901 28.814C29.6901 29.2978 30.0823 29.6901 30.5661 29.6901H39.3264C39.8103 29.6901 40.2025 29.2978 40.2025 28.814C40.2025 28.3302 39.8103 27.938 39.3264 27.938Z" fill="white"/>
<path d="M39.3264 22.6818H30.5661C30.0823 22.6818 29.6901 23.074 29.6901 23.5579C29.6901 24.0417 30.0823 24.4339 30.5661 24.4339H39.3264C39.8103 24.4339 40.2025 24.0417 40.2025 23.5579C40.2025 23.074 39.8103 22.6818 39.3264 22.6818Z" fill="white"/>
<path d="M28.376 33.1942H19.6157C19.1319 33.1942 18.7397 33.5864 18.7397 34.0702C18.7397 34.5541 19.1319 34.9463 19.6157 34.9463H28.376C28.8599 34.9463 29.2521 34.5541 29.2521 34.0702C29.2521 33.5864 28.8599 33.1942 28.376 33.1942Z" fill="white"/>
<path d="M39.3264 33.1942H30.5661C30.0823 33.1942 29.6901 33.5864 29.6901 34.0702C29.6901 34.5541 30.0823 34.9463 30.5661 34.9463H39.3264C39.8103 34.9463 40.2025 34.5541 40.2025 34.0702C40.2025 33.5864 39.8103 33.1942 39.3264 33.1942Z" fill="white"/>
<path d="M39.3264 25.3099H30.5661C30.0823 25.3099 29.6901 25.7021 29.6901 26.186C29.6901 26.6698 30.0823 27.062 30.5661 27.062H39.3264C39.8103 27.062 40.2025 26.6698 40.2025 26.186C40.2025 25.7021 39.8103 25.3099 39.3264 25.3099Z" fill="white"/>
<path d="M39.3264 20.0537H30.5661C30.0823 20.0537 29.6901 20.4459 29.6901 20.9297C29.6901 21.4136 30.0823 21.8058 30.5661 21.8058H39.3264C39.8103 21.8058 40.2025 21.4136 40.2025 20.9297C40.2025 20.4459 39.8103 20.0537 39.3264 20.0537Z" fill="white"/>
</svg>
