<svg width="55" height="55" viewBox="0 0 55 55" fill="none" xmlns="http://www.w3.org/2000/svg">
<g id="&#208;&#152;&#208;&#186;&#208;&#190;&#208;&#189;&#208;&#186;&#208;&#176; &#208;&#188;&#208;&#176;&#209;&#128;&#208;&#186; &#208;&#190;&#209;&#130;&#208;&#180;&#208;&#181;&#208;&#187;">
<path id="Vector" d="M27.281 53.562C41.7956 53.562 53.562 41.7956 53.562 27.281C53.562 12.7664 41.7956 1 27.281 1C12.7664 1 1 12.7664 1 27.281C1 41.7956 12.7664 53.562 27.281 53.562Z" fill="#28B075" stroke="white" stroke-dasharray="10 10"/>
<path id="Vector_2" d="M26.624 18.7397H17.8636C17.3798 18.7397 16.9876 19.1319 16.9876 19.6157C16.9876 20.0995 17.3798 20.4918 17.8636 20.4918H26.624C27.1078 20.4918 27.5 20.0995 27.5 19.6157C27.5 19.1319 27.1078 18.7397 26.624 18.7397Z" fill="white"/>
<path id="Vector_3" d="M26.624 25.7479H17.8636C17.3798 25.7479 16.9876 26.1401 16.9876 26.624C16.9876 27.1078 17.3798 27.5 17.8636 27.5H26.624C27.1078 27.5 27.5 27.1078 27.5 26.624C27.5 26.1401 27.1078 25.7479 26.624 25.7479Z" fill="white"/>
<path id="Vector_4" d="M26.624 22.2438H17.8636C17.3798 22.2438 16.9876 22.636 16.9876 23.1198C16.9876 23.6036 17.3798 23.9958 17.8636 23.9958H26.624C27.1078 23.9958 27.5 23.6036 27.5 23.1198C27.5 22.636 27.1078 22.2438 26.624 22.2438Z" fill="white"/>
<path id="Vector_5" d="M35.8223 18.7397H32.7562C32.2724 18.7397 31.8802 19.1319 31.8802 19.6157C31.8802 20.0995 32.2724 20.4918 32.7562 20.4918H35.8223C36.3062 20.4918 36.6984 20.0995 36.6984 19.6157C36.6984 19.1319 36.3062 18.7397 35.8223 18.7397Z" fill="white"/>
<path id="Vector_6" d="M35.8223 22.2438H32.7562C32.2724 22.2438 31.8802 22.636 31.8802 23.1198C31.8802 23.6036 32.2724 23.9958 32.7562 23.9958H35.8223C36.3062 23.9958 36.6984 23.6036 36.6984 23.1198C36.6984 22.636 36.3062 22.2438 35.8223 22.2438Z" fill="white"/>
<path id="Vector_7" d="M35.8223 25.7479H32.7562C32.2724 25.7479 31.8802 26.1401 31.8802 26.624C31.8802 27.1078 32.2724 27.5 32.7562 27.5H35.8223C36.3062 27.5 36.6984 27.1078 36.6984 26.624C36.6984 26.1401 36.3062 25.7479 35.8223 25.7479Z" fill="white"/>
<path id="Vector_8" d="M18.1289 32.2512C18.3812 32.0914 18.7425 32 19.1219 32H36.8781C37.2575 32 37.6188 32.0914 37.8711 32.2512L38.6607 32.7512C39.4242 33.2347 38.8156 34 37.6676 34H18.3323C17.1844 34 16.5758 33.2347 17.3393 32.7512L18.1289 32.2512Z" fill="white"/>
<path id="Vector_9" d="M22.0114 34.9598C22.1266 34.8707 22.2681 34.8223 22.4137 34.8223H32.1483C32.2939 34.8223 32.4354 34.8707 32.5506 34.9598C33.0458 35.3433 32.7747 36.1364 32.1483 36.1364H22.4137C21.7874 36.1364 21.5162 35.3433 22.0114 34.9598Z" fill="white"/>
<path id="Vector_10" d="M38.8884 16.1116H15.6735C15.1897 16.1116 14.7975 16.5038 14.7975 16.9876V28.8141C14.7975 29.2979 15.1897 29.6901 15.6735 29.6901H38.8884C39.3722 29.6901 39.7645 29.2979 39.7645 28.8141V16.9876C39.7645 16.5038 39.3722 16.1116 38.8884 16.1116Z" stroke="white" stroke-width="2"/>
<path id="Vector_11" d="M15.3974 29.6901H39.1646C39.5702 29.6901 39.9228 29.9686 40.0168 30.3632L41.5811 36.9335C41.7122 37.4839 41.2948 38.0124 40.7289 38.0124H13.8331C13.2672 38.0124 12.8498 37.4839 12.9809 36.9335L14.5452 30.3632C14.6392 29.9686 14.9918 29.6901 15.3974 29.6901Z" stroke="white" stroke-width="2"/>
</g>
</svg>
