<svg width="55" height="55" viewBox="0 0 55 55" fill="none" xmlns="http://www.w3.org/2000/svg">
<path d="M27.281 53.562C41.7956 53.562 53.562 41.7956 53.562 27.281C53.562 12.7664 41.7956 1 27.281 1C12.7664 1 1 12.7664 1 27.281C1 41.7956 12.7664 53.562 27.281 53.562Z" fill="#28B075" stroke="white" stroke-dasharray="10 10"/>
<path d="M27.938 45.8967V24.4339C27.938 24.192 27.7419 23.9958 27.5 23.9958C27.2581 23.9958 27.062 24.192 27.062 24.4339V45.8967C27.062 46.1386 27.2581 46.3347 27.5 46.3347C27.7419 46.3347 27.938 46.1386 27.938 45.8967Z" fill="white"/>
<path d="M27.6661 36.5606C27.9998 37.4689 30.3872 37.4276 32.9985 36.4683C35.6099 35.509 37.4563 33.995 37.1226 33.0867C36.789 32.1785 34.4016 32.2198 31.7902 33.1791C29.1789 34.1383 27.3325 35.6523 27.6661 36.5606Z" fill="white"/>
<path d="M39.3265 14.7975H15.6736V24.8719H39.3265V14.7975Z" fill="white"/>
<path d="M35.3843 16.5496H19.1777C18.452 16.5496 17.8636 17.1379 17.8636 17.8636V22.2438C17.8636 22.9695 18.452 23.5578 19.1777 23.5578H35.3843C36.11 23.5578 36.6984 22.9695 36.6984 22.2438V17.8636C36.6984 17.1379 36.11 16.5496 35.3843 16.5496Z" fill="#28B075"/>
<path d="M17.6446 24.4339H16.3306C16.2096 24.4339 16.1116 24.3358 16.1116 24.2149C16.1116 24.0939 16.2096 23.9959 16.3306 23.9959H17.6446C17.7656 23.9959 17.8636 24.0939 17.8636 24.2149C17.8636 24.3358 17.7656 24.4339 17.6446 24.4339Z" fill="#28B075"/>
<path d="M38.2314 15.6735H36.9174C36.7964 15.6735 36.6984 15.5755 36.6984 15.4545C36.6984 15.3336 36.7964 15.2355 36.9174 15.2355H38.2314C38.3524 15.2355 38.4504 15.3336 38.4504 15.4545C38.4504 15.5755 38.3524 15.6735 38.2314 15.6735Z" fill="#28B075"/>
<path d="M27.5 22.6818C28.9514 22.6818 30.1281 21.5052 30.1281 20.0537C30.1281 18.6022 28.9514 17.4256 27.5 17.4256C26.0485 17.4256 24.8719 18.6022 24.8719 20.0537C24.8719 21.5052 26.0485 22.6818 27.5 22.6818Z" fill="white"/>
<path d="M38.0124 24.4339C38.4962 24.4339 38.8884 24.0417 38.8884 23.5579C38.8884 23.074 38.4962 22.6818 38.0124 22.6818C37.5286 22.6818 37.1364 23.074 37.1364 23.5579C37.1364 24.0417 37.5286 24.4339 38.0124 24.4339Z" fill="#28B075"/>
<path d="M16.9876 16.9876C17.4714 16.9876 17.8636 16.5954 17.8636 16.1116C17.8636 15.6277 17.4714 15.2355 16.9876 15.2355C16.5038 15.2355 16.1116 15.6277 16.1116 16.1116C16.1116 16.5954 16.5038 16.9876 16.9876 16.9876Z" fill="#28B075"/>
</svg>
