<svg width="49" height="46" viewBox="0 0 49 46" fill="none" xmlns="http://www.w3.org/2000/svg">
<path fill-rule="evenodd" clip-rule="evenodd" d="M45.51 0.207858C44.6278 0.312277 43.564 0.436142 43.1461 0.483123C42.1507 0.595059 40.271 0.808554 39.4736 0.900309C39.1254 0.940426 38.0236 1.06584 37.0253 1.17917C36.027 1.29241 34.7353 1.43989 34.1548 1.50681C33.5744 1.57372 32.523 1.69228 31.8184 1.77031L30.5372 1.91215L30.4895 2.36553C30.4633 2.61481 30.4033 3.40711 30.3562 4.12611C30.3091 4.84512 30.2276 6.01366 30.1751 6.72286C30.1226 7.43206 30.0951 8.0272 30.1139 8.04542C30.1327 8.06364 30.4323 8.04404 30.7796 8.00179C31.1268 7.95955 32.6647 7.79549 34.197 7.63714C35.7294 7.47872 37.8759 7.25689 38.9671 7.14413C42.1534 6.8147 44.2317 6.59491 45.8653 6.41451C46.4786 6.34669 47.115 6.2913 47.2794 6.2913H47.5784V0L47.3463 0.00898758C47.2186 0.0139716 46.3923 0.103439 45.51 0.207858ZM34.9569 9.12508C33.7692 9.18341 30.0628 9.40753 30.0523 9.42158C30.0459 9.43 29.9967 10.6319 29.9429 12.0924C29.7956 16.0886 29.6856 18.9425 29.5952 21.1208C29.5504 22.1993 29.4882 23.9608 29.4568 25.0351L29.4 26.9886L30.701 26.9361C31.4165 26.9072 32.7684 26.8592 33.7051 26.8294L35.4081 26.775L35.4533 26.1131C35.4781 25.7491 35.5392 23.7599 35.589 21.6927C35.6849 17.7102 35.8067 13.2443 35.8903 10.6421L35.941 9.06927L35.7022 9.08471C35.5709 9.09321 35.2355 9.11135 34.9569 9.12508ZM41.5842 14.4331C39.8991 14.678 38.6878 15.1391 37.4685 16L36.9409 16.3726V18.9393C36.9409 21.3526 36.9497 21.5023 37.0886 21.4447C38.471 20.8722 39.9513 20.8086 40.7923 21.2857C41.2236 21.5302 41.5468 21.9725 41.8762 22.7689C42.3886 24.0075 42.3824 23.9106 42.3592 30.3943C42.3448 34.3877 42.3069 36.4644 42.2428 36.7673C41.9505 38.1484 40.9692 39.2078 39.7902 39.4153L39.4736 39.471V46L39.9169 45.9975C41.0271 45.9912 42.5535 45.6788 43.4967 45.2649C45.1319 44.5474 47.0219 42.8258 47.7814 41.3622C48.3188 40.3263 48.7329 38.7362 48.9348 36.9329C49.0617 35.799 48.9882 23.537 48.8446 21.897C48.6301 19.4468 48.2291 18.2363 47.1788 16.8688C46.4612 15.9345 45.7267 15.3093 44.9132 14.9403C43.9503 14.5034 42.5588 14.2914 41.5842 14.4331ZM32.3608 31.2726L29.5114 31.2953V32.5153C29.5114 33.1863 29.5522 35.0293 29.602 36.6109C29.7044 39.8592 29.7641 40.2047 30.4519 41.5293C31.4553 43.4615 32.3675 44.3468 34.0704 45.0409C35.2311 45.5142 37.1048 46 37.7688 46H38.0129L38.0674 45.2034C38.0974 44.7653 38.1221 43.2809 38.1224 41.9048L38.1228 39.4028L37.764 39.348C36.6413 39.1766 35.8867 38.3679 35.6343 37.0656C35.5654 36.7101 35.4973 35.4497 35.4605 33.8464C35.4173 31.9671 35.3726 31.2169 35.305 31.2306C35.2528 31.2413 33.928 31.2601 32.3608 31.2726Z" fill="url(#paint0_linear_420_102)"/>
<path d="M11.8585 4.73547C12.8942 4.63866 14.0935 4.51152 14.5234 4.4528C14.9534 4.39421 15.4491 4.33868 15.6249 4.3294L15.9447 4.3125V46H9.97531V4.9115L11.8585 4.73547Z" fill="url(#paint1_linear_420_102)"/>
<path d="M16.8686 9.36763L17.6503 9.28758C18.7029 9.17969 20.2387 9.28301 21.2632 9.53036C23.7739 10.1368 25.6167 11.8718 26.2444 14.2199C26.4134 14.8521 26.4623 15.8516 26.4623 18.676V22.3171H20.635L20.6316 19.5125C20.628 16.5545 20.5389 15.8446 20.0986 15.2644C19.6935 14.7306 19.1213 14.519 17.8959 14.4495L16.7912 14.3867L16.8686 9.36763Z" fill="url(#paint2_linear_420_102)"/>
<path d="M0.941603 14.3535C2.0829 12.1078 4.28746 10.5347 7.13273 9.93602C7.64085 9.8291 8.29649 9.73547 8.58956 9.72772L9.12254 9.71387V14.7997L8.27176 14.875C7.16343 14.9729 6.20876 15.4302 5.78308 16.0669C5.29572 16.7959 5.14293 17.8969 5.14293 20.6806V23.1481H0.0262938L0.02871 20.205C0.0315526 16.829 0.185762 15.8411 0.941603 14.3535Z" fill="url(#paint3_linear_420_102)"/>
<path d="M20.5639 32.7736L20.6533 24.1175H26.4182L26.5113 26.0091C26.6473 28.7723 26.6253 31.5109 26.4564 32.8226C25.84 37.6131 22.6684 40.5562 18.0265 40.6456L16.8686 40.6679L16.7917 35.2615L17.754 35.0848C18.9891 34.8579 19.6111 34.4501 20.1395 33.5203L20.5639 32.7736Z" fill="url(#paint4_linear_420_102)"/>
<path d="M0.440173 34.9181C0.148667 33.962 0.119246 33.5293 0.0621103 29.3458L0 24.81H2.57154C3.98572 24.81 5.15018 24.8257 5.15913 24.8446C5.16795 24.8636 5.21613 26.7801 5.2663 29.1034C5.34987 32.983 5.38043 33.3659 5.64095 33.7978C6.13442 34.6159 6.58909 34.8428 7.88843 34.9203L9.05147 34.9895L9.12794 41.1489L8.23693 41.0672C5.78109 40.8418 4.14902 40.17 2.72461 38.7982C1.66873 37.7813 0.931797 36.5295 0.440173 34.9181Z" fill="url(#paint5_linear_420_102)"/>
<defs>
<linearGradient id="paint0_linear_420_102" x1="56.7" y1="30.1875" x2="-7.00356" y2="32.2328" gradientUnits="userSpaceOnUse">
<stop stop-color="#BC1F6E"/>
<stop offset="1" stop-color="#283166"/>
</linearGradient>
<linearGradient id="paint1_linear_420_102" x1="56.7" y1="30.1875" x2="-7.00356" y2="32.2328" gradientUnits="userSpaceOnUse">
<stop stop-color="#BC1F6E"/>
<stop offset="1" stop-color="#283166"/>
</linearGradient>
<linearGradient id="paint2_linear_420_102" x1="56.7" y1="30.1875" x2="-7.00356" y2="32.2328" gradientUnits="userSpaceOnUse">
<stop stop-color="#BC1F6E"/>
<stop offset="1" stop-color="#283166"/>
</linearGradient>
<linearGradient id="paint3_linear_420_102" x1="56.7" y1="30.1875" x2="-7.00356" y2="32.2328" gradientUnits="userSpaceOnUse">
<stop stop-color="#BC1F6E"/>
<stop offset="1" stop-color="#283166"/>
</linearGradient>
<linearGradient id="paint4_linear_420_102" x1="56.7" y1="30.1875" x2="-7.00356" y2="32.2328" gradientUnits="userSpaceOnUse">
<stop stop-color="#BC1F6E"/>
<stop offset="1" stop-color="#283166"/>
</linearGradient>
<linearGradient id="paint5_linear_420_102" x1="56.7" y1="30.1875" x2="-7.00356" y2="32.2328" gradientUnits="userSpaceOnUse">
<stop stop-color="#BC1F6E"/>
<stop offset="1" stop-color="#283166"/>
</linearGradient>
</defs>
</svg>
