<svg width="135" height="66" viewBox="0 0 135 66" fill="none" xmlns="http://www.w3.org/2000/svg">
<path fill-rule="evenodd" clip-rule="evenodd" d="M14.6925 36.7103C14.6925 38.6271 13.888 40.0988 12.2892 41.1305C10.6903 42.1623 8.50815 42.6832 5.74785 42.6832C4.98355 42.6832 3.48023 42.6528 1.24274 42.5921C1.37849 39.5273 1.44893 36.154 1.44893 32.457C1.44893 28.9824 1.37849 25.9278 1.24274 23.2979H13.5713L13.4807 25.508C9.94609 25.3917 6.66789 25.331 3.6411 25.331C3.6813 26.8836 3.70139 28.9016 3.70139 31.3898C4.59639 31.3494 5.42098 31.3292 6.17521 31.3292C8.63387 31.3292 10.5043 31.6073 11.7864 32.1586C13.7221 32.9982 14.6925 34.5154 14.6925 36.7103ZM12.1986 36.9632C12.1986 34.5305 10.0617 33.3167 5.77802 33.3167C4.99362 33.3167 4.29977 33.347 3.70139 33.4078C3.70139 36.0427 3.75675 38.3995 3.86237 40.473C4.23939 40.5641 4.89305 40.6045 5.83828 40.6045C8.21654 40.6045 9.87071 40.3112 10.8009 39.7195C11.7361 39.1228 12.1986 38.2073 12.1986 36.9632ZM34.0903 42.5921H30.9831C30.9831 41.9296 30.3646 39.851 29.1277 36.3562H20.6256C19.4088 39.8004 18.8004 41.8791 18.8004 42.5921H15.8238C15.8238 42.228 17.0909 39.067 19.6249 33.1145C22.1591 27.1668 23.4261 23.8947 23.4261 23.2979H26.845C26.845 23.8845 28.0517 27.1062 30.4652 32.9779C32.8836 38.8446 34.0903 42.051 34.0903 42.5921ZM28.449 34.4142C26.1411 28.6133 24.9848 25.5333 24.9848 25.1692H24.8238C24.8238 25.4726 23.6323 28.5576 21.2439 34.4142H28.449ZM51.145 42.5921H48.3496C48.445 39.1733 48.4954 36.1135 48.4954 33.4078H39.6714C39.6714 35.5977 39.7216 38.6625 39.8171 42.5921H37.0215C37.1573 38.9862 37.2278 35.6078 37.2278 32.457C37.2278 29.1595 37.1573 26.1048 37.0215 23.2979H39.8171C39.7015 26.125 39.6412 28.8713 39.6412 31.5365H48.5255C48.5255 29.3971 48.4652 26.651 48.3496 23.2979H51.145C50.9992 26.0441 50.9239 29.0988 50.9239 32.457C50.9239 36.1439 50.9992 39.5223 51.145 42.5921ZM71.5635 42.5921H68.7629C68.9037 40.7563 68.9691 38.01 68.9691 34.3535C68.9691 32.6744 68.9993 30.5402 69.0595 27.9508H68.9087C68.5669 28.942 66.7317 31.4657 63.4032 35.5268C60.3009 39.3098 58.7474 41.6615 58.7474 42.5921H56.6858C56.8518 39.9724 56.9373 36.9228 56.9373 33.4331C56.9373 29.8878 56.8518 26.5094 56.6858 23.2979H59.4563C59.3155 25.9682 59.2501 28.9622 59.2501 32.28C59.2501 33.9793 59.2049 35.8657 59.1143 37.9393H59.2752C59.6774 36.9531 61.5629 34.4395 64.9216 30.3986C67.9635 26.7319 69.487 24.365 69.487 23.2979H71.5635C71.4177 26.5094 71.3422 29.8878 71.3422 33.4331C71.3422 36.9228 71.4177 39.9724 71.5635 42.5921ZM90.5539 36.7103C90.5539 38.6271 89.7394 40.1089 88.1204 41.1558C86.5417 42.1724 84.3696 42.6832 81.6093 42.6832C80.845 42.6832 79.3417 42.6528 77.1042 42.5921C77.24 39.5273 77.3104 36.154 77.3104 32.457C77.3104 28.9824 77.24 25.9278 77.1042 23.2979H78.869C79.216 23.2979 79.9048 23.2878 80.9456 23.2575C81.9864 23.227 82.7456 23.2119 83.2182 23.2119C87.3009 23.2119 89.3422 24.6281 89.3422 27.4652C89.3422 29.6754 88.3768 31.147 86.4411 31.8804V32.0271C89.1813 32.5227 90.5539 34.0804 90.5539 36.7103ZM88.0601 36.9632C88.0601 34.5305 85.9232 33.3167 81.6395 33.3167C80.8551 33.3167 80.1613 33.347 79.5629 33.4078C79.5629 36.0427 79.6182 38.3995 79.7239 40.473C80.1009 40.5641 80.7545 40.6045 81.6998 40.6045C84.068 40.6045 85.7473 40.296 86.7377 39.674C87.6227 39.1076 88.0601 38.2073 88.0601 36.9632ZM86.8685 28.2037C86.8685 26.1604 85.5009 25.1388 82.7607 25.1388C81.383 25.1388 80.2719 25.2096 79.417 25.3613C79.4925 26.0694 79.5327 28.0823 79.5327 31.3898C80.0155 31.4101 80.5434 31.4201 81.1266 31.4201C83.0674 31.4201 84.4853 31.1977 85.3651 30.7526C86.3708 30.262 86.8685 29.4124 86.8685 28.2037ZM110.439 42.5921H107.332C107.332 41.9296 106.714 39.851 105.477 36.3562H96.9747C95.7579 39.8004 95.1495 41.8791 95.1495 42.5921H92.1729C92.1729 42.228 93.44 39.067 95.974 33.1145C98.5082 27.1668 99.7752 23.8947 99.7752 23.2979H103.194C103.194 23.8845 104.401 27.1062 106.814 32.9779C109.233 38.8446 110.439 42.051 110.439 42.5921ZM104.798 34.4142C102.49 28.6133 101.334 25.5333 101.334 25.1692H101.173C101.173 25.4726 99.9814 28.5576 97.5931 34.4142H104.798ZM133.905 42.5921H131.134C131.134 40.3871 130.984 37.206 130.677 33.0335C130.375 28.8662 130.209 26.3677 130.194 25.5383H130.043C129.063 28.7499 127.816 32.2344 126.313 35.9922C124.804 39.7498 124.05 41.9498 124.05 42.5921H122.059C122.059 41.8993 121.36 39.6588 119.952 35.8708C118.549 32.0827 117.66 29.549 117.287 28.2643C116.915 26.9798 116.659 26.0694 116.523 25.5383H116.372C116.347 26.8887 116.151 29.6197 115.794 33.7314C115.432 37.8381 115.256 40.7917 115.256 42.5921H112.722C112.722 42.491 113.054 39.7751 113.723 34.4344C114.391 29.0988 114.723 25.3866 114.723 23.2979H118.6C118.6 24.3853 119.384 27.1011 120.958 31.4505C122.527 35.7949 123.311 38.4299 123.311 39.3452H123.462C123.462 38.4299 124.342 35.7898 126.111 31.4252C127.881 27.0657 128.761 24.355 128.761 23.2979H132.547C132.547 25.3866 132.774 29.0785 133.226 34.3838C133.679 39.6892 133.905 42.4253 133.905 42.5921Z" fill="#232323"/>
<path fill-rule="evenodd" clip-rule="evenodd" d="M68.1658 14.4988C68.1658 14.827 67.9005 15.0935 67.5734 15.0935C67.2465 15.0935 66.9812 14.827 66.9812 14.4988C66.9812 14.1671 67.2465 13.9023 67.5734 13.9023C67.9005 13.9023 68.1658 14.1671 68.1658 14.4988Z" fill="#232323"/>
<path fill-rule="evenodd" clip-rule="evenodd" d="M68.4006 12.2024C68.4006 12.6628 68.0309 13.034 67.5734 13.034C67.1159 13.034 66.7461 12.6628 66.7461 12.2024C66.7461 11.7433 67.1159 11.3711 67.5734 11.3711C68.0309 11.3711 68.4006 11.7433 68.4006 12.2024Z" fill="#232323"/>
<path fill-rule="evenodd" clip-rule="evenodd" d="M66.6912 11.1446C65.4888 7.07747 62.5893 4.76604 59.8026 5.06956C56.841 5.39471 56.231 8.63598 57.9788 9.66505C58.541 9.99471 59.1786 9.81112 59.3751 9.26097C59.5428 8.7967 59.2432 8.2662 58.8144 8.39866C58.3844 8.53115 58.4653 9.13069 58.8309 9.14537C58.7305 9.54554 57.8761 9.25946 58.0217 8.20084C58.1204 7.49752 58.8213 6.8255 59.6554 6.6352C62.4696 5.98518 65.3432 8.25478 66.6912 11.1446Z" fill="#232323"/>
<path fill-rule="evenodd" clip-rule="evenodd" d="M35.4015 14.1385C45.2693 20.0437 51.4972 10.5088 60.1253 11.3636C48.8666 7.74303 44.9588 18.4873 35.4015 14.1385Z" fill="#232323"/>
<path fill-rule="evenodd" clip-rule="evenodd" d="M66.2803 13.7991C62.1178 12.9139 62.4919 17.1439 61.2975 16.8952C59.7433 16.5718 61.2975 11.3811 66.2803 13.7991Z" fill="#232323"/>
<path fill-rule="evenodd" clip-rule="evenodd" d="M57.6326 15.1851C56.4605 14.5968 58.0725 10.7618 62.9095 12.414C59.3341 11.9421 58.5397 15.6404 57.6326 15.1851Z" fill="#232323"/>
<path fill-rule="evenodd" clip-rule="evenodd" d="M60.4773 10.0233C60.094 8.76293 64.3467 8.01862 66.3395 13.1194C63.8768 10.0826 60.7724 10.9976 60.4773 10.0233Z" fill="#232323"/>
<path fill-rule="evenodd" clip-rule="evenodd" d="M68.4556 11.1446C69.6579 7.07747 72.5575 4.76604 75.3442 5.06956C78.3056 5.39471 78.9158 8.63598 77.168 9.66505C76.6058 9.99471 75.9682 9.81112 75.7717 9.26097C75.6042 8.7967 75.9036 8.2662 76.3324 8.39866C76.7626 8.53115 76.6815 9.13069 76.3158 9.14537C76.416 9.54554 77.2707 9.25946 77.1253 8.20084C77.0264 7.49752 76.3257 6.8255 75.4911 6.6352C72.6772 5.98518 69.8038 8.25478 68.4556 11.1446Z" fill="#232323"/>
<path fill-rule="evenodd" clip-rule="evenodd" d="M99.7459 14.1385C89.8777 20.0437 83.65 10.5088 75.0217 11.3636C86.28 7.74303 90.1884 18.4873 99.7459 14.1385Z" fill="#232323"/>
<path fill-rule="evenodd" clip-rule="evenodd" d="M68.8665 13.7991C73.0289 12.9139 72.6551 17.1439 73.8495 16.8952C75.4034 16.5718 73.8495 11.3811 68.8665 13.7991Z" fill="#232323"/>
<path fill-rule="evenodd" clip-rule="evenodd" d="M77.5141 15.1851C78.6863 14.5968 77.0742 10.7618 72.2375 12.414C75.8131 11.9421 76.6073 15.6404 77.5141 15.1851Z" fill="#232323"/>
<path fill-rule="evenodd" clip-rule="evenodd" d="M74.6695 10.0233C75.0529 8.76293 70.8 8.01862 68.8075 13.1194C71.27 10.0826 74.3743 10.9976 74.6695 10.0233Z" fill="#232323"/>
<path fill-rule="evenodd" clip-rule="evenodd" d="M67.5734 9.72252C67.1895 7.95299 66.4714 5.60574 66.4714 3.83774C66.4714 2.82248 66.8375 1.93729 67.5727 1.93729H67.5742C68.3095 1.93729 68.6756 2.82248 68.6756 3.83774C68.6756 5.60574 67.9573 7.95299 67.5734 9.72252ZM67.5742 0.0810547H67.5734H67.5727C66.4032 0.1488 65.3357 1.0767 65.3616 3.07897C65.3919 5.43464 67.2409 8.4986 67.5734 10.5628C67.9061 8.4986 69.7549 5.43464 69.7851 3.07897C69.8111 1.0767 68.7436 0.1488 67.5742 0.0810547Z" fill="#232323"/>
<path fill-rule="evenodd" clip-rule="evenodd" d="M66.9815 51.4706C66.9815 51.1425 67.2468 50.876 67.5739 50.876C67.9007 50.876 68.166 51.1425 68.166 51.4706C68.166 51.8024 67.9007 52.0671 67.5739 52.0671C67.2468 52.0671 66.9815 51.8024 66.9815 51.4706Z" fill="#232323"/>
<path fill-rule="evenodd" clip-rule="evenodd" d="M66.7466 53.7682C66.7466 53.3078 67.1164 52.9365 67.5739 52.9365C68.0313 52.9365 68.4011 53.3078 68.4011 53.7682C68.4011 54.2273 68.0313 54.5995 67.5739 54.5995C67.1164 54.5995 66.7466 54.2273 66.7466 53.7682Z" fill="#232323"/>
<path fill-rule="evenodd" clip-rule="evenodd" d="M68.456 54.8252C69.6584 58.8924 72.5579 61.2038 75.3447 60.9003C78.3062 60.5751 78.9162 57.3338 77.1684 56.3048C76.6063 55.9751 75.9686 56.1587 75.7721 56.7089C75.6044 57.1731 75.904 57.7036 76.3328 57.5712C76.7628 57.4387 76.6819 56.8391 76.3163 56.8245C76.4167 56.4243 77.2711 56.7104 77.1255 57.769C77.0268 58.4723 76.3259 59.1443 75.4918 59.3346C72.6776 59.9846 69.804 57.715 68.456 54.8252Z" fill="#232323"/>
<path fill-rule="evenodd" clip-rule="evenodd" d="M99.7457 51.8315C89.8779 45.9262 83.65 55.4611 75.0219 54.6063C86.2806 58.2269 90.1884 47.4826 99.7457 51.8315Z" fill="#232323"/>
<path fill-rule="evenodd" clip-rule="evenodd" d="M68.867 52.1711C73.0295 53.0563 72.6554 48.8263 73.8498 49.075C75.404 49.3984 73.8498 54.5891 68.867 52.1711Z" fill="#232323"/>
<path fill-rule="evenodd" clip-rule="evenodd" d="M77.5147 50.785C78.6868 51.3734 77.0748 55.2083 72.2378 53.5562C75.8132 54.028 76.6076 50.3298 77.5147 50.785Z" fill="#232323"/>
<path fill-rule="evenodd" clip-rule="evenodd" d="M74.67 55.9457C75.0532 57.2061 70.8005 57.9504 68.8078 52.8496C71.2705 55.8864 74.3749 54.9714 74.67 55.9457Z" fill="#232323"/>
<path fill-rule="evenodd" clip-rule="evenodd" d="M66.6917 54.8252C65.4893 58.8924 62.5897 61.2038 59.803 60.9003C56.8417 60.5751 56.2315 57.3338 57.9793 56.3048C58.5414 55.9751 59.1791 56.1587 59.3755 56.7089C59.543 57.1731 59.2436 57.7036 58.8149 57.5712C58.3846 57.4387 58.4657 56.8391 58.8314 56.8245C58.7312 56.4243 57.8766 56.7104 58.022 57.769C58.1208 58.4723 58.8216 59.1443 59.6561 59.3346C62.4701 59.9846 65.3435 57.715 66.6917 54.8252Z" fill="#232323"/>
<path fill-rule="evenodd" clip-rule="evenodd" d="M35.4014 51.8315C45.2696 45.9262 51.4973 55.4611 60.1256 54.6063C48.8673 58.2269 44.9588 47.4826 35.4014 51.8315Z" fill="#232323"/>
<path fill-rule="evenodd" clip-rule="evenodd" d="M66.2807 52.1711C62.1183 53.0563 62.4921 48.8263 61.2977 49.075C59.7438 49.3984 61.2977 54.5891 66.2807 52.1711Z" fill="#232323"/>
<path fill-rule="evenodd" clip-rule="evenodd" d="M57.6331 50.785C56.461 51.3734 58.073 55.2083 62.9098 53.5562C59.3342 54.028 58.54 50.3298 57.6331 50.785Z" fill="#232323"/>
<path fill-rule="evenodd" clip-rule="evenodd" d="M60.4778 55.9457C60.0943 57.2061 64.3472 57.9504 66.3398 52.8496C63.8773 55.8864 60.7729 54.9714 60.4778 55.9457Z" fill="#232323"/>
<path fill-rule="evenodd" clip-rule="evenodd" d="M67.5738 56.2485C67.9578 58.018 68.6759 60.3652 68.6759 62.1333C68.6759 63.1485 68.3097 64.0337 67.5745 64.0337H67.573C66.8377 64.0337 66.4716 63.1485 66.4716 62.1333C66.4716 60.3652 67.1899 58.018 67.5738 56.2485ZM67.573 65.89H67.5738H67.5745C68.744 65.8222 69.8115 64.8943 69.7856 62.892C69.7553 60.5364 67.9063 57.4724 67.5738 55.4082C67.2412 57.4724 65.3924 60.5364 65.3621 62.892C65.3361 64.8943 66.4036 65.8222 67.573 65.89Z" fill="#232323"/>
</svg>
