<svg width="34" height="29" viewBox="0 0 34 29" fill="none" xmlns="http://www.w3.org/2000/svg">
<path d="M30.5606 1.0258C26.2461 2.85607 7.74676 10.7058 2.63524 12.8453C-0.792866 14.2157 1.21381 15.5004 1.21381 15.5004C1.21381 15.5004 4.13999 16.5281 6.64824 17.299C9.15649 18.0699 10.4943 17.2133 10.4943 17.2133L22.283 9.07652C26.4633 6.16466 25.4601 8.5627 24.457 9.59033C22.283 11.8173 18.6879 15.3287 15.6781 18.1552C14.3403 19.3542 15.0092 20.3822 15.5944 20.896C17.7684 22.7803 23.7044 26.6344 24.039 26.8915C25.8054 28.1723 29.2797 30.0163 29.8081 26.1206L31.8984 12.6739C32.5673 8.13458 33.2362 3.93766 33.3199 2.73864C33.5705 -0.173221 30.5606 1.0258 30.5606 1.0258Z" fill="#232323"/>
</svg>
