<svg width="37" height="36" viewBox="0 0 37 36" fill="none" xmlns="http://www.w3.org/2000/svg">
<path d="M27.1337 7.25533C25.6462 5.52592 24.8669 3.29116 24.9286 1.01584L19.3694 0.881836C19.3694 0.881836 19.3694 1.11917 19.3694 1.43868V24.6739C17.8727 31.3437 8.21988 29.6033 9.18615 22.8172C9.72536 19.7174 13.0555 17.8102 16.0153 18.8883V13.2162C9.57196 12.0944 3.46577 17.2227 3.52995 23.7563C4.09314 37.9256 24.4162 37.9277 24.9801 23.7563C24.838 23.2492 24.9173 13.8066 24.8972 13.0103C27.425 14.5831 30.3661 15.3692 33.3447 15.269V9.41075C30.5911 9.41075 28.4897 8.67864 27.1337 7.25533Z" fill="#232323"/>
</svg>
