<svg width="37" height="36" viewBox="0 0 37 36" fill="none" xmlns="http://www.w3.org/2000/svg">
<path fill-rule="evenodd" clip-rule="evenodd" d="M36.0869 22.7817V12.524C36.0869 3.15475 33.822 0.925273 24.2267 0.925273C0.762131 0.778217 1.68642 -0.153844 1.84419 22.764C1.84419 32.1333 4.10906 34.3624 13.7043 34.3624H21.6687C31.8633 34.5345 36.3432 33.85 36.0869 22.7817ZM29.4883 24.7847H26.9913C26.0461 24.7847 25.7608 24.0357 24.0664 22.3814C22.5861 20.9881 21.9619 20.8138 21.5875 20.8138C21.0701 20.8138 20.9275 20.9531 20.9275 21.6496V23.8438C20.9275 24.4359 20.7314 24.7844 19.1439 24.7844C16.5043 24.7844 13.5974 23.2168 11.5283 20.3261C8.42504 16.0943 7.58669 12.8897 7.58669 12.2454C7.58669 11.8797 7.7293 11.5489 8.44274 11.5489H10.9398C11.5817 11.5489 11.8135 11.8275 12.0633 12.4718C13.0869 15.7494 16.5934 21.2032 16.6469 18.0621V14.4746C16.54 12.8375 15.6482 12.6982 15.6482 12.1061C15.6482 11.8448 15.898 11.5489 16.2901 11.5489H20.2137C20.7488 11.5489 20.9271 11.8103 20.9271 12.4369V17.2785C20.995 18.4394 21.7344 17.9824 22.4789 17.2263C24.2802 15.2758 25.5464 12.2454 25.5464 12.2454C25.707 11.8797 25.9923 11.5489 26.6342 11.5489H29.1312C29.8804 11.5489 30.0407 11.9146 29.8804 12.4373C29.5771 13.8652 26.5273 18.0448 26.5273 18.0624C26.2598 18.4631 26.1529 18.6722 26.5273 19.1423C27.2462 20.0169 32.4843 24.6373 29.4883 24.7847Z" fill="#232323"/>
</svg>
