<svg width="36" height="25" viewBox="0 0 36 25" fill="none" xmlns="http://www.w3.org/2000/svg">
<path d="M34.4857 4.51761C34.091 3.06715 32.9288 1.92455 31.4532 1.53698C28.7782 0.832031 18.0525 0.832031 18.0525 0.832031C18.0525 0.832031 7.3268 0.832031 4.65215 1.53663C3.17618 1.9242 2.01396 3.06679 1.61969 4.51726C0.902649 7.14699 0.902649 12.6325 0.902649 12.6325C0.902649 12.6325 0.902649 18.1184 1.61933 20.7478C2.0136 22.1982 3.17582 23.3405 4.65179 23.7284C7.3268 24.433 18.0525 24.433 18.0525 24.433C18.0525 24.433 28.7786 24.433 31.4532 23.7284C32.9292 23.3405 34.091 22.1982 34.4857 20.7478C35.2024 18.118 35.2024 12.6325 35.2024 12.6325C35.2024 12.6325 35.2024 7.14699 34.4857 4.51761ZM14.5445 17.613V7.65199L23.5094 12.6329L14.5445 17.613Z" fill="#232323"/>
</svg>
