<svg width="191" height="94" viewBox="0 0 191 94" fill="none" xmlns="http://www.w3.org/2000/svg">
<path fill-rule="evenodd" clip-rule="evenodd" d="M20.0048 52.2844C20.0048 55.0143 18.8547 57.1104 16.569 58.5798C14.2832 60.0492 11.1635 60.7912 7.21732 60.7912C6.12466 60.7912 3.97546 60.7479 0.776676 60.6615C0.970754 56.2965 1.07146 51.492 1.07146 46.2266C1.07146 41.278 0.970754 36.9274 0.776676 33.1818H18.4019L18.2724 36.3295C13.2192 36.1638 8.53263 36.0775 4.20545 36.0775C4.26291 38.2888 4.29165 41.1629 4.29165 44.7067C5.57116 44.6491 6.75002 44.6203 7.82829 44.6203C11.3433 44.6203 14.0172 45.0165 15.8501 45.8016C18.6175 46.9973 20.0048 49.1582 20.0048 52.2844ZM16.4395 52.6445C16.4395 49.1798 13.3846 47.4511 7.26045 47.4511C6.13905 47.4511 5.1471 47.4942 4.29165 47.5808C4.29165 51.3335 4.37078 54.6901 4.52179 57.6433C5.06079 57.773 5.99528 57.8306 7.3466 57.8306C10.7466 57.8306 13.1115 57.4129 14.4413 56.5702C15.7783 55.7203 16.4395 54.4164 16.4395 52.6445ZM47.7366 60.6615H43.2944C43.2944 59.7179 42.4101 56.7575 40.6419 51.7801H28.4869C26.7474 56.6854 25.8776 59.6459 25.8776 60.6615H21.6222C21.6222 60.1428 23.4337 55.6409 27.0564 47.163C30.6793 38.6921 32.4906 34.0318 32.4906 33.1818H37.3785C37.3785 34.0173 39.1036 38.6058 42.554 46.9685C46.0115 55.3241 47.7366 59.8907 47.7366 60.6615ZM39.6715 49.0141C36.3722 40.7523 34.719 36.3656 34.719 35.847H34.4888C34.4888 36.2792 32.7854 40.673 29.371 49.0141H39.6715ZM72.1185 60.6615H68.122C68.2584 55.7922 68.3304 51.4344 68.3304 47.5808H55.7154C55.7154 50.6997 55.7872 55.0647 55.9238 60.6615H51.9271C52.1212 55.5258 52.222 50.7141 52.222 46.2266C52.222 41.5302 52.1212 37.1795 51.9271 33.1818H55.9238C55.7584 37.2084 55.6722 41.1196 55.6722 44.9156H68.3735C68.3735 41.8686 68.2873 37.9574 68.122 33.1818H72.1185C71.91 37.0931 71.8023 41.4437 71.8023 46.2266C71.8023 51.4776 71.91 56.2893 72.1185 60.6615ZM101.309 60.6615H97.3055C97.5068 58.0468 97.6003 54.1354 97.6003 48.9277C97.6003 46.5362 97.6434 43.4966 97.7296 39.8087H97.514C97.0253 41.2204 94.4016 44.8148 89.6431 50.5988C85.208 55.9867 82.987 59.3361 82.987 60.6615H80.0398C80.2771 56.9303 80.3992 52.5869 80.3992 47.6168C80.3992 42.5674 80.2771 37.7557 80.0398 33.1818H84.0005C83.7992 36.985 83.7057 41.2492 83.7057 45.9745C83.7057 48.3947 83.6411 51.0815 83.5116 54.0347H83.7416C84.3167 52.6301 87.0122 49.0501 91.8139 43.2949C96.1626 38.0727 98.3407 34.7017 98.3407 33.1818H101.309C101.101 37.7557 100.993 42.5674 100.993 47.6168C100.993 52.5869 101.101 56.9303 101.309 60.6615ZM128.459 52.2844C128.459 55.0143 127.294 57.1248 124.98 58.6157C122.723 60.0637 119.617 60.7912 115.671 60.7912C114.578 60.7912 112.429 60.7479 109.23 60.6615C109.425 56.2965 109.525 51.492 109.525 46.2266C109.525 41.278 109.425 36.9274 109.23 33.1818H111.753C112.25 33.1818 113.234 33.1674 114.722 33.1242C116.21 33.0809 117.296 33.0594 117.971 33.0594C123.808 33.0594 126.726 35.0763 126.726 39.1171C126.726 42.2649 125.346 44.3609 122.579 45.4054V45.6143C126.496 46.3202 128.459 48.5388 128.459 52.2844ZM124.893 52.6445C124.893 49.1798 121.838 47.4511 115.714 47.4511C114.593 47.4511 113.601 47.4942 112.745 47.5808C112.745 51.3335 112.825 54.6901 112.976 57.6433C113.515 57.773 114.449 57.8306 115.8 57.8306C119.186 57.8306 121.587 57.3912 123.003 56.5054C124.268 55.6987 124.893 54.4164 124.893 52.6445ZM123.19 40.1688C123.19 37.2588 121.235 35.8037 117.317 35.8037C115.348 35.8037 113.759 35.9046 112.537 36.1207C112.645 37.1291 112.702 39.996 112.702 44.7067C113.392 44.7355 114.147 44.7499 114.981 44.7499C117.756 44.7499 119.783 44.433 121.041 43.7991C122.478 43.1004 123.19 41.8904 123.19 40.1688ZM156.888 60.6615H152.445C152.445 59.7179 151.561 56.7575 149.793 51.7801H137.638C135.898 56.6854 135.029 59.6459 135.029 60.6615H130.773C130.773 60.1428 132.585 55.6409 136.207 47.163C139.83 38.6921 141.642 34.0318 141.642 33.1818H146.529C146.529 34.0173 148.255 38.6058 151.705 46.9685C155.162 55.3241 156.888 59.8907 156.888 60.6615ZM148.822 49.0141C145.523 40.7523 143.87 36.3656 143.87 35.847H143.64C143.64 36.2792 141.936 40.673 138.522 49.0141H148.822ZM190.434 60.6615H186.474C186.474 57.521 186.258 52.9903 185.82 47.0477C185.388 41.1124 185.151 37.554 185.129 36.3727H184.914C183.512 40.9468 181.73 45.9096 179.58 51.2615C177.424 56.6133 176.346 59.7467 176.346 60.6615H173.499C173.499 59.6747 172.5 56.4838 170.487 51.0887C168.482 45.6935 167.21 42.0849 166.678 40.2552C166.146 38.4257 165.779 37.1291 165.585 36.3727H165.369C165.333 38.296 165.053 42.1856 164.543 48.0417C164.025 53.8906 163.774 58.0972 163.774 60.6615H160.151C160.151 60.5174 160.625 56.6493 161.581 49.0429C162.537 41.4437 163.012 36.1566 163.012 33.1818H168.554C168.554 34.7305 169.675 38.5985 171.925 44.7931C174.168 50.9806 175.289 54.7334 175.289 56.0371H175.505C175.505 54.7334 176.763 50.9733 179.293 44.7571C181.823 38.548 183.081 34.6873 183.081 33.1818H188.494C188.494 36.1566 188.817 41.4149 189.464 48.9709C190.111 56.527 190.434 60.4238 190.434 60.6615Z" fill="white"/>
<path fill-rule="evenodd" clip-rule="evenodd" d="M96.4518 20.6502C96.4518 21.1175 96.0725 21.497 95.6049 21.497C95.1376 21.497 94.7583 21.1175 94.7583 20.6502C94.7583 20.1776 95.1376 19.8006 95.6049 19.8006C96.0725 19.8006 96.4518 20.1776 96.4518 20.6502Z" fill="white"/>
<path fill-rule="evenodd" clip-rule="evenodd" d="M96.7875 17.379C96.7875 18.0347 96.259 18.5635 95.6049 18.5635C94.9509 18.5635 94.4222 18.0347 94.4222 17.379C94.4222 16.7252 94.9509 16.1951 95.6049 16.1951C96.259 16.1951 96.7875 16.7252 96.7875 17.379Z" fill="white"/>
<path fill-rule="evenodd" clip-rule="evenodd" d="M94.3437 15.8722C92.6248 10.0796 88.4795 6.78756 84.4955 7.21985C80.2616 7.68294 79.3895 12.2993 81.8882 13.7649C82.6919 14.2345 83.6035 13.973 83.8843 13.1894C84.1241 12.5282 83.6958 11.7726 83.0828 11.9613C82.4681 12.15 82.5837 13.0039 83.1064 13.0248C82.9629 13.5947 81.7413 13.1873 81.9496 11.6796C82.0906 10.6779 83.0926 9.72073 84.2851 9.4497C88.3084 8.52391 92.4166 11.7564 94.3437 15.8722Z" fill="white"/>
<path fill-rule="evenodd" clip-rule="evenodd" d="M49.6111 20.1364C63.7184 28.5469 72.622 14.967 84.957 16.1843C68.8612 11.0278 63.2744 26.3303 49.6111 20.1364Z" fill="white"/>
<path fill-rule="evenodd" clip-rule="evenodd" d="M93.7563 19.6531C87.8055 18.3924 88.3403 24.417 86.6327 24.0627C84.4108 23.6021 86.6327 16.2093 93.7563 19.6531Z" fill="white"/>
<path fill-rule="evenodd" clip-rule="evenodd" d="M81.3933 21.627C79.7176 20.7891 82.0222 15.3271 88.9373 17.6802C83.8258 17.0082 82.69 22.2753 81.3933 21.627Z" fill="white"/>
<path fill-rule="evenodd" clip-rule="evenodd" d="M85.4601 14.2765C84.9122 12.4815 90.992 11.4214 93.8409 18.6862C90.3201 14.361 85.882 15.6642 85.4601 14.2765Z" fill="white"/>
<path fill-rule="evenodd" clip-rule="evenodd" d="M96.8661 15.8722C98.585 10.0796 102.73 6.78756 106.714 7.21985C110.948 7.68294 111.82 12.2993 109.322 13.7649C108.518 14.2345 107.606 13.973 107.325 13.1894C107.086 12.5282 107.514 11.7726 108.127 11.9613C108.742 12.15 108.626 13.0039 108.103 13.0248C108.247 13.5947 109.468 13.1873 109.261 11.6796C109.119 10.6779 108.117 9.72073 106.924 9.4497C102.901 8.52391 98.7935 11.7564 96.8661 15.8722Z" fill="white"/>
<path fill-rule="evenodd" clip-rule="evenodd" d="M141.6 20.1364C127.492 28.5469 118.589 14.967 106.253 16.1843C122.348 11.0278 127.936 26.3303 141.6 20.1364Z" fill="white"/>
<path fill-rule="evenodd" clip-rule="evenodd" d="M97.4535 19.6531C103.404 18.3924 102.87 24.417 104.577 24.0627C106.799 23.6021 104.577 16.2093 97.4535 19.6531Z" fill="white"/>
<path fill-rule="evenodd" clip-rule="evenodd" d="M109.816 21.627C111.492 20.7891 109.188 15.3271 102.273 17.6802C107.385 17.0082 108.52 22.2753 109.816 21.627Z" fill="white"/>
<path fill-rule="evenodd" clip-rule="evenodd" d="M105.75 14.2765C106.298 12.4815 100.218 11.4214 97.3692 18.6862C100.89 14.361 105.328 15.6642 105.75 14.2765Z" fill="white"/>
<path fill-rule="evenodd" clip-rule="evenodd" d="M95.6049 13.8473C95.0561 11.3271 94.0295 7.98404 94.0295 5.46597C94.0295 4.01999 94.5528 2.75927 95.604 2.75927H95.6062C96.6572 2.75927 97.1807 4.01999 97.1807 5.46597C97.1807 7.98404 96.1538 11.3271 95.6049 13.8473ZM95.6062 0.11554H95.6049H95.604C93.932 0.212025 92.4059 1.53359 92.4429 4.3853C92.4862 7.74034 95.1296 12.1042 95.6049 15.0441C96.0805 12.1042 98.7236 7.74034 98.7669 4.3853C98.804 1.53359 97.2779 0.212025 95.6062 0.11554Z" fill="white"/>
<path fill-rule="evenodd" clip-rule="evenodd" d="M94.7588 73.3067C94.7588 72.8393 95.1381 72.4598 95.6057 72.4598C96.073 72.4598 96.4523 72.8393 96.4523 73.3067C96.4523 73.7792 96.073 74.1562 95.6057 74.1562C95.1381 74.1562 94.7588 73.7792 94.7588 73.3067Z" fill="white"/>
<path fill-rule="evenodd" clip-rule="evenodd" d="M94.423 76.5778C94.423 75.9221 94.9516 75.3933 95.6057 75.3933C96.2597 75.3933 96.7884 75.9221 96.7884 76.5778C96.7884 77.2316 96.2597 77.7617 95.6057 77.7617C94.9516 77.7617 94.423 77.2316 94.423 76.5778Z" fill="white"/>
<path fill-rule="evenodd" clip-rule="evenodd" d="M96.8668 78.0846C98.5858 83.8772 102.731 87.1693 106.715 86.737C110.949 86.2739 111.821 81.6575 109.322 80.1919C108.519 79.7224 107.607 79.9839 107.326 80.7674C107.086 81.4286 107.515 82.1842 108.128 81.9956C108.743 81.8069 108.627 80.953 108.104 80.9321C108.248 80.3621 109.469 80.7696 109.261 82.2773C109.12 83.279 108.118 84.2361 106.925 84.5071C102.902 85.4329 98.794 82.2005 96.8668 78.0846Z" fill="white"/>
<path fill-rule="evenodd" clip-rule="evenodd" d="M141.6 73.8204C127.492 65.4098 118.589 78.9898 106.254 77.7725C122.349 82.929 127.936 67.6265 141.6 73.8204Z" fill="white"/>
<path fill-rule="evenodd" clip-rule="evenodd" d="M97.4543 74.3037C103.405 75.5644 102.87 69.5398 104.578 69.8941C106.8 70.3547 104.578 77.7475 97.4543 74.3037Z" fill="white"/>
<path fill-rule="evenodd" clip-rule="evenodd" d="M109.817 72.3298C111.493 73.1678 109.188 78.6297 102.273 76.2767C107.385 76.9487 108.521 71.6815 109.817 72.3298Z" fill="white"/>
<path fill-rule="evenodd" clip-rule="evenodd" d="M105.75 79.6803C106.298 81.4753 100.219 82.5354 97.3697 75.2707C100.89 79.5958 105.329 78.2926 105.75 79.6803Z" fill="white"/>
<path fill-rule="evenodd" clip-rule="evenodd" d="M94.3445 78.0846C92.6255 83.8772 88.4803 87.1693 84.4963 86.737C80.2627 86.2739 79.3903 81.6575 81.889 80.1919C82.6927 79.7224 83.6042 79.9839 83.8851 80.7674C84.1246 81.4286 83.6965 82.1842 83.0836 81.9956C82.4685 81.8069 82.5844 80.953 83.1072 80.9321C82.964 80.3621 81.7421 80.7696 81.95 82.2773C82.0914 83.279 83.0931 84.2361 84.2862 84.5071C88.3091 85.4329 92.4171 82.2005 94.3445 78.0846Z" fill="white"/>
<path fill-rule="evenodd" clip-rule="evenodd" d="M49.6109 73.8204C63.7188 65.4098 72.6221 78.9898 84.9574 77.7725C68.8622 82.929 63.2746 67.6265 49.6109 73.8204Z" fill="white"/>
<path fill-rule="evenodd" clip-rule="evenodd" d="M93.757 74.3037C87.8063 75.5644 88.3407 69.5398 86.6331 69.8941C84.4116 70.3547 86.6331 77.7475 93.757 74.3037Z" fill="white"/>
<path fill-rule="evenodd" clip-rule="evenodd" d="M81.3941 72.3298C79.7184 73.1678 82.023 78.6297 88.9377 76.2767C83.826 76.9487 82.6905 71.6815 81.3941 72.3298Z" fill="white"/>
<path fill-rule="evenodd" clip-rule="evenodd" d="M85.4609 79.6803C84.9127 81.4753 90.9928 82.5354 93.8413 75.2707C90.321 79.5958 85.8828 78.2926 85.4609 79.6803Z" fill="white"/>
<path fill-rule="evenodd" clip-rule="evenodd" d="M95.6057 80.1095C96.1545 82.6297 97.1812 85.9728 97.1812 88.4908C97.1812 89.9368 96.6577 91.1975 95.6066 91.1975H95.6044C94.5533 91.1975 94.0299 89.9368 94.0299 88.4908C94.0299 85.9728 95.0568 82.6297 95.6057 80.1095ZM95.6044 93.8413H95.6057H95.6066C97.2786 93.7448 98.8047 92.4232 98.7676 89.5715C98.7244 86.2165 96.081 81.8527 95.6057 78.9127C95.1301 81.8527 92.487 86.2165 92.4438 89.5715C92.4066 92.4232 93.9327 93.7448 95.6044 93.8413Z" fill="white"/>
</svg>
