<svg width="195" height="67" viewBox="0 0 195 67" fill="none" xmlns="http://www.w3.org/2000/svg">
<path fill-rule="evenodd" clip-rule="evenodd" d="M191.284 0.421382C191.88 0.302161 192.46 0.688424 192.579 1.28412L194.522 12.9916C194.641 13.5873 194.255 14.1669 193.659 14.2861C193.063 14.4053 192.484 14.0191 192.364 13.4234L190.938 4.29465C189.637 6.18823 185.836 11.3565 184.5 13.1451C184.136 13.6319 183.447 13.7318 182.96 13.3683C182.474 13.0048 182.374 12.3155 182.737 11.8287C184.042 10.0822 187.813 4.95627 189.086 3.10501L180.008 4.52142C179.413 4.64064 178.833 4.25438 178.714 3.65868C178.595 3.06298 178.981 2.48342 179.577 2.3642L191.284 0.421382ZM179.779 17.0605C180.236 17.4611 180.281 18.1561 179.881 18.6128C175.647 23.4398 171.178 27.8202 166.37 31.7871C165.902 32.1737 165.208 32.1072 164.822 31.6386C164.435 31.17 164.501 30.4767 164.97 30.09C169.68 26.2041 174.065 21.9074 178.227 17.1621C178.627 16.7054 179.322 16.6599 179.779 17.0605ZM157.567 37.0093C157.902 37.5159 157.764 38.1984 157.257 38.5337C152.147 41.9158 146.662 44.9221 140.708 47.586C140.154 47.8341 139.503 47.5857 139.255 47.0312C139.007 46.4766 139.255 45.826 139.81 45.5778C145.659 42.9607 151.037 40.0117 156.043 36.6991C156.549 36.3638 157.232 36.5027 157.567 37.0093ZM130.868 50.3616C131.069 50.9347 130.768 51.5627 130.195 51.7642C124.574 53.7405 118.565 55.4752 112.11 56.9904C111.518 57.1292 110.926 56.7623 110.788 56.1709C110.649 55.5794 111.016 54.9874 111.607 54.8486C117.995 53.3493 123.927 51.636 129.465 49.6888C130.038 49.4872 130.666 49.7885 130.868 50.3616ZM101.958 58.0081C102.068 58.6056 101.672 59.179 101.075 59.2889C95.2297 60.3641 89.045 61.2935 82.4851 62.0899C81.882 62.1631 81.3338 61.7335 81.2606 61.1304C81.1873 60.5274 81.6169 59.9791 82.22 59.9059C88.7412 59.1142 94.8811 58.1913 100.677 57.1252C101.274 57.0153 101.848 57.4106 101.958 58.0081ZM72.3078 62.0875C72.3644 62.6924 71.92 63.2286 71.3152 63.2853C65.3716 63.8419 59.141 64.3074 52.6012 64.6895C51.9948 64.7249 51.4744 64.262 51.4389 63.6555C51.4035 63.0491 51.8664 62.5287 52.4729 62.4932C58.9902 62.1124 65.195 61.6488 71.11 61.0949C71.7149 61.0382 72.2512 61.4827 72.3078 62.0875ZM42.4029 64.1077C42.4286 64.7146 41.9574 65.2275 41.3504 65.2532C35.3534 65.5068 29.1124 65.7007 22.6129 65.8399C22.0055 65.8529 21.5026 65.3711 21.4896 64.7637C21.4766 64.1563 21.9584 63.6534 22.5658 63.6404C29.0518 63.5015 35.2774 63.3081 41.2574 63.0551C41.8644 63.0295 42.3773 63.5007 42.4029 64.1077ZM12.4795 64.9111C12.4866 65.5186 11.9999 66.0168 11.3924 66.0238C8.31851 66.0597 5.18995 66.085 2.00537 66.1001C1.39787 66.103 0.903045 65.6128 0.900159 65.0053C0.897273 64.3978 1.38742 63.903 1.99492 63.9001C5.17472 63.885 8.2982 63.8598 11.3667 63.824C11.9742 63.8169 12.4724 64.3036 12.4795 64.9111Z" fill="white"/>
</svg>
