<svg width="77" height="38" viewBox="0 0 77 38" fill="none" xmlns="http://www.w3.org/2000/svg">
<g clip-path="url(#clip0_434_232)">
<path fill-rule="evenodd" clip-rule="evenodd" d="M7.85402 21.0932C7.85402 22.1759 7.39789 23.0072 6.49139 23.5899C5.58486 24.1727 4.34762 24.4669 2.78259 24.4669C2.34925 24.4669 1.49689 24.4498 0.228271 24.4155C0.305242 22.6844 0.34518 20.7789 0.34518 18.6907C0.34518 16.7281 0.305242 15.0027 0.228271 13.5173H7.21831L7.16698 14.7656C5.16291 14.6999 3.30423 14.6657 1.5881 14.6657C1.61089 15.5426 1.62229 16.6825 1.62229 18.088C2.12973 18.0651 2.59726 18.0537 3.02489 18.0537C4.41891 18.0537 5.47939 18.2108 6.20631 18.5222C7.30384 18.9964 7.85402 19.8534 7.85402 21.0932ZM6.44006 21.236C6.44006 19.862 5.22848 19.1763 2.79969 19.1763C2.35495 19.1763 1.96155 19.1935 1.62229 19.2278C1.62229 20.7161 1.65367 22.0473 1.71356 23.2185C1.92732 23.27 2.29793 23.2928 2.83386 23.2928C4.18229 23.2928 5.12017 23.1271 5.64759 22.7929C6.17783 22.4559 6.44006 21.9388 6.44006 21.236ZM18.8523 24.4155H17.0905C17.0905 24.0413 16.7398 22.8672 16.0385 20.8932H11.218C10.5281 22.8386 10.1831 24.0127 10.1831 24.4155H8.49548C8.49548 24.2098 9.21389 22.4244 10.6506 19.0621C12.0874 15.7026 12.8058 13.8543 12.8058 13.5173H14.7443C14.7443 13.8486 15.4285 15.6684 16.7969 18.985C18.1681 22.2987 18.8523 24.1098 18.8523 24.4155ZM15.6537 19.7962C14.3452 16.5197 13.6896 14.7799 13.6896 14.5742H13.5983C13.5983 14.7456 12.9227 16.4882 11.5686 19.7962H15.6537ZM28.5219 24.4155H26.937C26.9911 22.4844 27.0196 20.7561 27.0196 19.2278H22.0166C22.0166 20.4647 22.0451 22.1959 22.0992 24.4155H20.5142C20.5912 22.3787 20.6311 20.4704 20.6311 18.6907C20.6311 16.8282 20.5912 15.1027 20.5142 13.5173H22.0992C22.0337 15.1142 21.9995 16.6653 21.9995 18.1708H27.0367C27.0367 16.9624 27.0025 15.4112 26.937 13.5173H28.5219C28.4393 15.0684 28.3966 16.7938 28.3966 18.6907C28.3966 20.7732 28.4393 22.6815 28.5219 24.4155ZM40.0989 24.4155H38.511C38.5908 23.3785 38.6279 21.8273 38.6279 19.762C38.6279 18.8135 38.645 17.608 38.6791 16.1454H38.5936C38.3998 16.7053 37.3593 18.1308 35.4721 20.4247C33.7132 22.5615 32.8323 23.8899 32.8323 24.4155H31.6635C31.7576 22.9358 31.806 21.2132 31.806 19.2421C31.806 17.2395 31.7576 15.3312 31.6635 13.5173H33.2343C33.1545 15.0256 33.1174 16.7167 33.1174 18.5908C33.1174 19.5506 33.0917 20.6161 33.0404 21.7874H33.1316C33.3597 21.2303 34.4287 19.8105 36.333 17.528C38.0577 15.4569 38.9215 14.12 38.9215 13.5173H40.0989C40.0162 15.3312 39.9734 17.2395 39.9734 19.2421C39.9734 21.2132 40.0162 22.9358 40.0989 24.4155ZM50.8661 21.0932C50.8661 22.1759 50.4043 23.0129 49.4863 23.6042C48.5912 24.1784 47.3597 24.4669 45.7946 24.4669C45.3613 24.4669 44.5089 24.4498 43.2403 24.4155C43.3173 22.6844 43.3572 20.7789 43.3572 18.6907C43.3572 16.7281 43.3173 15.0027 43.2403 13.5173H44.2409C44.4377 13.5173 44.8282 13.5116 45.4183 13.4944C46.0084 13.4772 46.4389 13.4687 46.7068 13.4687C49.0216 13.4687 50.179 14.2686 50.179 15.8712C50.179 17.1196 49.6317 17.9508 48.5342 18.3651V18.4479C50.0878 18.7278 50.8661 19.6077 50.8661 21.0932ZM49.4521 21.236C49.4521 19.862 48.2405 19.1763 45.8117 19.1763C45.367 19.1763 44.9736 19.1935 44.6343 19.2278C44.6343 20.7161 44.6657 22.0473 44.7256 23.2185C44.9394 23.27 45.31 23.2928 45.8459 23.2928C47.1887 23.2928 48.1408 23.1186 48.7024 22.7672C49.2041 22.4473 49.4521 21.9388 49.4521 21.236ZM48.7765 16.2883C48.7765 15.1342 48.0011 14.5571 46.4474 14.5571C45.6663 14.5571 45.0363 14.5971 44.5517 14.6828C44.5945 15.0827 44.6172 16.2197 44.6172 18.088C44.8909 18.0994 45.1903 18.1051 45.521 18.1051C46.6213 18.1051 47.4253 17.9794 47.9241 17.728C48.4943 17.4509 48.7765 16.971 48.7765 16.2883ZM62.1408 24.4155H60.379C60.379 24.0413 60.0284 22.8672 59.3271 20.8932H54.5065C53.8166 22.8386 53.4717 24.0127 53.4717 24.4155H51.784C51.784 24.2098 52.5024 22.4244 53.9392 19.0621C55.376 15.7026 56.0943 13.8543 56.0943 13.5173H58.0328C58.0328 13.8486 58.717 15.6684 60.0854 18.985C61.4566 22.2987 62.1408 24.1098 62.1408 24.4155ZM58.9422 19.7962C57.6337 16.5197 56.9781 14.7799 56.9781 14.5742H56.8868C56.8868 14.7456 56.2112 16.4882 54.8571 19.7962H58.9422ZM75.4452 24.4155H73.8744C73.8744 23.17 73.7889 21.3732 73.615 19.0164C73.444 16.6625 73.3499 15.2512 73.3413 14.7828H73.2558C72.6999 16.5968 71.993 18.565 71.1406 20.6875C70.2854 22.81 69.8577 24.0527 69.8577 24.4155H68.7288C68.7288 24.0242 68.3326 22.7587 67.5344 20.619C66.739 18.4793 66.2344 17.0481 66.0235 16.3225C65.8125 15.5969 65.6672 15.0827 65.5902 14.7828H65.5046C65.4904 15.5455 65.3792 17.0881 65.1768 19.4106C64.9716 21.7302 64.8718 23.3985 64.8718 24.4155H63.435C63.435 24.3584 63.6232 22.8243 64.0023 19.8077C64.3815 16.7938 64.5696 14.6971 64.5696 13.5173H66.7675C66.7675 14.1315 67.2123 15.6655 68.1045 18.1222C68.994 20.5761 69.4387 22.0645 69.4387 22.5815H69.5242C69.5242 22.0645 70.0231 20.5732 71.0265 18.1079C72.03 15.6455 72.5289 14.1143 72.5289 13.5173H74.6755C74.6755 14.6971 74.8038 16.7824 75.0604 19.7791C75.3169 22.7758 75.4452 24.3213 75.4452 24.4155Z" fill="white"/>
<path fill-rule="evenodd" clip-rule="evenodd" d="M38.1721 8.54717C38.1721 8.73252 38.0217 8.88303 37.8362 8.88303C37.6509 8.88303 37.5005 8.73252 37.5005 8.54717C37.5005 8.35976 37.6509 8.21024 37.8362 8.21024C38.0217 8.21024 38.1721 8.35976 38.1721 8.54717Z" fill="white"/>
<path fill-rule="evenodd" clip-rule="evenodd" d="M38.3053 7.25005C38.3053 7.51011 38.0956 7.71982 37.8362 7.71982C37.5768 7.71982 37.3672 7.51011 37.3672 7.25005C37.3672 6.99074 37.5768 6.78052 37.8362 6.78052C38.0956 6.78052 38.3053 6.99074 38.3053 7.25005Z" fill="white"/>
<path fill-rule="evenodd" clip-rule="evenodd" d="M37.3364 6.65233C36.6546 4.35502 35.0106 3.04942 33.4306 3.22086C31.7515 3.40452 31.4056 5.23534 32.3966 5.8166C32.7153 6.00281 33.0768 5.89911 33.1882 5.58836C33.2833 5.32611 33.1135 5.02647 32.8704 5.10128C32.6266 5.17612 32.6724 5.51477 32.8797 5.52306C32.8228 5.74909 32.3383 5.5875 32.4209 4.98955C32.4768 4.59228 32.8742 4.2127 33.3472 4.10521C34.9428 3.73804 36.5721 5.02001 37.3364 6.65233Z" fill="white"/>
<path fill-rule="evenodd" clip-rule="evenodd" d="M19.5957 8.34359C25.1906 11.6791 28.7217 6.29342 33.6137 6.77621C27.2302 4.73116 25.0145 10.8 19.5957 8.34359Z" fill="white"/>
<path fill-rule="evenodd" clip-rule="evenodd" d="M37.1028 8.15179C34.7427 7.65179 34.9548 10.0411 34.2776 9.90059C33.3964 9.71792 34.2776 6.78598 37.1028 8.15179Z" fill="white"/>
<path fill-rule="evenodd" clip-rule="evenodd" d="M32.2005 8.93469C31.5359 8.60237 32.4499 6.43621 35.1924 7.3694C33.1652 7.10289 32.7147 9.19182 32.2005 8.93469Z" fill="white"/>
<path fill-rule="evenodd" clip-rule="evenodd" d="M33.8133 6.0195C33.596 5.3076 36.0072 4.88718 37.1371 7.76833C35.7408 6.05301 33.9806 6.56982 33.8133 6.0195Z" fill="white"/>
<path fill-rule="evenodd" clip-rule="evenodd" d="M38.3362 6.65233C39.0179 4.35502 40.6619 3.04942 42.2419 3.22086C43.9209 3.40452 44.2669 5.23534 43.276 5.8166C42.9572 6.00281 42.5957 5.89911 42.4843 5.58836C42.3893 5.32611 42.5591 5.02647 42.8022 5.10128C43.0461 5.17612 43.0001 5.51477 42.7928 5.52306C42.8496 5.74909 43.3342 5.5875 43.2518 4.98955C43.1957 4.59228 42.7984 4.2127 42.3252 4.10521C40.7298 3.73804 39.1006 5.02001 38.3362 6.65233Z" fill="white"/>
<path fill-rule="evenodd" clip-rule="evenodd" d="M56.0778 8.34359C50.4826 11.6791 46.9517 6.29342 42.0596 6.77621C48.4428 4.73116 50.6588 10.8 56.0778 8.34359Z" fill="white"/>
<path fill-rule="evenodd" clip-rule="evenodd" d="M38.5693 8.15179C40.9293 7.65179 40.7174 10.0411 41.3946 9.90059C42.2757 9.71792 41.3946 6.78598 38.5693 8.15179Z" fill="white"/>
<path fill-rule="evenodd" clip-rule="evenodd" d="M43.4722 8.93469C44.1368 8.60237 43.2228 6.43621 40.4805 7.3694C42.5078 7.10289 42.9581 9.19182 43.4722 8.93469Z" fill="white"/>
<path fill-rule="evenodd" clip-rule="evenodd" d="M41.8595 6.0195C42.0769 5.3076 39.6656 4.88718 38.5359 7.76833C39.9321 6.05301 41.6922 6.56982 41.8595 6.0195Z" fill="white"/>
<path fill-rule="evenodd" clip-rule="evenodd" d="M37.8366 5.84925C37.6189 4.84975 37.2117 3.52391 37.2117 2.52527C37.2117 1.9518 37.4193 1.4518 37.8362 1.4518H37.837C38.2539 1.4518 38.4615 1.9518 38.4615 2.52527C38.4615 3.52391 38.0542 4.84975 37.8366 5.84925ZM37.837 0.40332H37.8366H37.8362C37.1731 0.441586 36.5678 0.965708 36.5825 2.09668C36.5997 3.42727 37.6481 5.15793 37.8366 6.32388C38.0252 5.15793 39.0734 3.42727 39.0906 2.09668C39.1053 0.965708 38.5 0.441586 37.837 0.40332Z" fill="white"/>
<path fill-rule="evenodd" clip-rule="evenodd" d="M37.501 29.4305C37.501 29.2451 37.6514 29.0946 37.8368 29.0946C38.0222 29.0946 38.1726 29.2451 38.1726 29.4305C38.1726 29.6179 38.0222 29.7674 37.8368 29.7674C37.6514 29.7674 37.501 29.6179 37.501 29.4305Z" fill="white"/>
<path fill-rule="evenodd" clip-rule="evenodd" d="M37.3679 30.7279C37.3679 30.4678 37.5776 30.2581 37.837 30.2581C38.0963 30.2581 38.306 30.4678 38.306 30.7279C38.306 30.9872 38.0963 31.1974 37.837 31.1974C37.5776 31.1974 37.3679 30.9872 37.3679 30.7279Z" fill="white"/>
<path fill-rule="evenodd" clip-rule="evenodd" d="M38.3367 31.3253C39.0184 33.6226 40.6624 34.9282 42.2424 34.7568C43.9216 34.5731 44.2674 32.7423 43.2764 32.161C42.9577 31.9748 42.5962 32.0785 42.4848 32.3893C42.3897 32.6515 42.5596 32.9512 42.8027 32.8764C43.0465 32.8015 43.0006 32.4629 42.7933 32.4546C42.8502 32.2286 43.3347 32.3901 43.2521 32.9881C43.1962 33.3854 42.7988 33.765 42.3258 33.8724C40.7302 34.2396 39.101 32.9576 38.3367 31.3253Z" fill="white"/>
<path fill-rule="evenodd" clip-rule="evenodd" d="M56.0775 29.6342C50.4827 26.2987 46.9516 31.6844 42.0596 31.2016C48.4431 33.2467 50.6587 27.1778 56.0775 29.6342Z" fill="white"/>
<path fill-rule="evenodd" clip-rule="evenodd" d="M38.5693 29.8259C40.9294 30.3259 40.7173 27.9366 41.3945 28.0771C42.2757 28.2598 41.3945 31.1917 38.5693 29.8259Z" fill="white"/>
<path fill-rule="evenodd" clip-rule="evenodd" d="M43.4728 29.0429C44.1374 29.3752 43.2234 31.5414 40.481 30.6082C42.5081 30.8747 42.9586 28.7858 43.4728 29.0429Z" fill="white"/>
<path fill-rule="evenodd" clip-rule="evenodd" d="M41.8599 31.9583C42.0772 32.6702 39.666 33.0906 38.5361 30.2095C39.9324 31.9248 41.6925 31.408 41.8599 31.9583Z" fill="white"/>
<path fill-rule="evenodd" clip-rule="evenodd" d="M37.3363 31.3253C36.6546 33.6226 35.0106 34.9282 33.4306 34.7568C31.7516 34.5731 31.4056 32.7423 32.3965 32.161C32.7153 31.9748 33.0768 32.0785 33.1882 32.3893C33.2832 32.6515 33.1134 32.9512 32.8703 32.8764C32.6264 32.8015 32.6724 32.4629 32.8797 32.4546C32.8229 32.2286 32.3383 32.3901 32.4208 32.9881C32.4768 33.3854 32.8741 33.765 33.3473 33.8724C34.9427 34.2396 36.5719 32.9576 37.3363 31.3253Z" fill="white"/>
<path fill-rule="evenodd" clip-rule="evenodd" d="M19.5957 29.6342C25.1908 26.2987 28.7218 31.6844 33.6139 31.2016C27.2306 33.2467 25.0146 27.1778 19.5957 29.6342Z" fill="white"/>
<path fill-rule="evenodd" clip-rule="evenodd" d="M37.1038 29.8259C34.7438 30.3259 34.9558 27.9366 34.2785 28.0771C33.3975 28.2598 34.2785 31.1917 37.1038 29.8259Z" fill="white"/>
<path fill-rule="evenodd" clip-rule="evenodd" d="M32.2005 29.0429C31.5359 29.3752 32.4499 31.5414 35.1923 30.6082C33.165 30.8747 32.7146 28.7858 32.2005 29.0429Z" fill="white"/>
<path fill-rule="evenodd" clip-rule="evenodd" d="M33.8133 31.9583C33.5959 32.6702 36.0072 33.0906 37.137 30.2095C35.7408 31.9248 33.9807 31.408 33.8133 31.9583Z" fill="white"/>
<path fill-rule="evenodd" clip-rule="evenodd" d="M37.8365 32.1284C38.0542 33.1279 38.4614 34.4537 38.4614 35.4524C38.4614 36.0258 38.2538 36.5258 37.8369 36.5258H37.836C37.4192 36.5258 37.2116 36.0258 37.2116 35.4524C37.2116 34.4537 37.6189 33.1279 37.8365 32.1284ZM37.836 37.5743H37.8365H37.8369C38.5 37.536 39.1053 37.0119 39.0905 35.881C39.0734 34.5504 38.025 32.8197 37.8365 31.6537C37.6479 32.8197 36.5997 34.5504 36.5825 35.881C36.5678 37.0119 37.173 37.536 37.836 37.5743Z" fill="white"/>
</g>
<defs>
<clipPath id="clip0_434_232">
<rect width="76" height="38" fill="white" transform="translate(0.43042)"/>
</clipPath>
</defs>
</svg>
