<svg width="20" height="20" viewBox="0 0 20 20" fill="none" xmlns="http://www.w3.org/2000/svg">
<path d="M19.9999 14.92V17.92C20.0011 18.1985 19.944 18.4742 19.8324 18.7294C19.7209 18.9845 19.5572 19.2136 19.352 19.4019C19.1468 19.5901 18.9045 19.7335 18.6407 19.8227C18.3769 19.9119 18.0973 19.9451 17.8199 19.92C14.7428 19.5856 11.7869 18.5342 9.18993 16.85C6.77376 15.3147 4.72527 13.2662 3.18993 10.85C1.49991 8.24121 0.448176 5.271 0.119933 2.18001C0.0949436 1.90347 0.127808 1.62477 0.216434 1.36163C0.305059 1.09849 0.447504 0.856695 0.634699 0.651627C0.821894 0.446558 1.04974 0.282715 1.30372 0.170527C1.55771 0.05834 1.83227 0.000266879 2.10993 5.39961e-06H5.10993C5.59524 -0.00477105 6.06572 0.167084 6.43369 0.483538C6.80166 0.799992 7.04201 1.23945 7.10993 1.72001C7.23656 2.68007 7.47138 3.62273 7.80993 4.53001C7.94448 4.88793 7.9736 5.27692 7.89384 5.65089C7.81408 6.02485 7.6288 6.36812 7.35993 6.64001L6.08993 7.91001C7.51349 10.4136 9.58639 12.4865 12.0899 13.91L13.3599 12.64C13.6318 12.3711 13.9751 12.1859 14.3491 12.1061C14.723 12.0263 15.112 12.0555 15.4699 12.19C16.3772 12.5286 17.3199 12.7634 18.2799 12.89C18.7657 12.9585 19.2093 13.2032 19.5265 13.5775C19.8436 13.9518 20.0121 14.4296 19.9999 14.92Z" fill="white"/>
</svg>
