<svg width="23" height="21" viewBox="0 0 23 21" fill="none" xmlns="http://www.w3.org/2000/svg">
<path d="M1.81885 2.94025V8.94025M1.81885 8.94025H7.81885M1.81885 8.94025L6.45885 4.58026C7.83976 3.20168 9.6313 2.30923 11.5635 2.03737C13.4958 1.76552 15.464 2.12899 17.1717 3.07302C18.8794 4.01705 20.234 5.4905 21.0315 7.27136C21.8289 9.05221 22.026 11.044 21.5931 12.9466C21.1601 14.8492 20.1205 16.5596 18.631 17.82C17.1414 19.0804 15.2826 19.8226 13.3346 19.9347C11.3865 20.0468 9.45482 19.5228 7.8305 18.4416C6.20618 17.3604 4.97724 15.7806 4.32885 13.9403" stroke="white" stroke-width="2" stroke-linecap="round" stroke-linejoin="round"/>
</svg>
