<svg width="53" height="53" viewBox="0 0 53 53" fill="none" xmlns="http://www.w3.org/2000/svg">
<path d="M48.0312 0H4.96875C2.23594 0 0 2.23594 0 4.96875V48.0312C0 50.7641 2.23594 53 4.96875 53H48.0312C50.7641 53 53 50.7641 53 48.0312V5.96875C53 3.23594 50.7641 0 48.0312 0ZM42.9267 37.1L38.0805 37.1729C38.0805 37.1729 37.0337 37.3816 35.669 36.4375C33.8571 35.1953 32.1478 31.9557 30.8129 32.3797C29.468 32.8037 29.5077 35.7121 29.5077 35.7121C29.5077 35.7121 29.5177 36.3348 29.2063 36.6628C28.8751 37.0238 28.2126 37.0967 28.2126 37.0967H26.0495C26.0495 37.0967 21.2663 37.3882 17.0527 32.9958C12.455 28.2126 8.4005 18.7222 8.4005 18.7222C8.4005 18.7222 8.162 18.0995 8.42037 17.8014C8.70856 17.4602 9.487 17.4403 9.487 17.4403L14.6744 17.4105C14.6744 17.4105 15.1613 17.4933 15.5124 17.7517C15.8039 17.9604 15.9563 18.3612 15.9563 18.3612C15.9563 18.3612 16.7944 20.4845 17.9041 22.3991C20.0671 26.1356 21.0807 26.9538 21.8161 26.5596C22.8827 25.9799 22.5614 21.2696 22.5614 21.2696C22.5614 21.2696 22.5813 19.5603 22.0248 18.8051C21.5909 18.2154 20.7727 18.0399 20.4216 17.9968C20.1301 17.9538 20.6071 17.2813 21.2298 16.9732C22.1606 16.5161 23.8069 16.4863 25.7547 16.5062C27.2652 16.5161 27.7124 16.6188 28.302 16.7546C30.0941 17.1886 29.4812 18.8547 29.4812 22.8529C29.4812 24.1382 29.2527 25.9369 30.1736 26.5265C30.5678 26.7849 31.5383 26.5662 33.973 22.4389C35.1224 20.4812 35.9903 18.1856 35.9903 18.1856C35.9903 18.1856 36.1758 17.7716 36.4673 17.596C36.7687 17.4204 37.1729 17.4734 37.1729 17.4734L42.6286 17.4436C42.6286 17.4436 44.2649 17.2482 44.5332 17.9935C44.8115 18.7686 43.9238 20.5806 41.6978 23.5519C38.0441 28.4279 37.63 27.9707 40.6742 30.7864C43.5726 33.4794 44.1722 34.7912 44.2782 34.9568C45.4574 36.9443 42.9333 37.1 42.9333 37.1H42.9267Z" fill="#23557D"/>
</svg>
